<?xml version="1.0" encoding="utf-8"?>
<svg xmlns="http://www.w3.org/2000/svg" viewBox="0 0 500 500">
  <circle cx="249.5" cy="249.5" r="175" fill="#B4D884">
    <title>Background</title>
  </circle>
  <path fill="none" opacity="1.000000" stroke="none" d="M 277.968 425.5 C 278.113 424.837 278.659 423.68 279.351 423.584 C 292.873 421.715 305.772 417.785 318.355 412.537 C 341.996 402.678 362.405 388.203 379.85 369.585 C 391.784 356.85 401.353 342.29 409.085 326.744 C 413.784 317.296 416.938 307.021 420.147 296.914 C 421.943 291.256 422.397 285.177 423.548 279.305 C 423.722 278.42 424.403 277.634 425.174 277.151 C 425.5 326.761 425.5 376.021 425.5 425.5 C 376.479 425.5 327.458 425.5 277.968 425.5 Z"/>
  <path fill="none" opacity="1.000000" stroke="none" d="M 425.5 223.032 C 424.836 222.885 423.676 222.335 423.584 221.643 C 421.786 208.087 417.757 195.196 412.518 182.606 C 402.364 158.206 387.43 137.069 367.809 119.58 C 352.461 105.9 335.326 94.521 315.741 87.545 C 305.545 83.914 295.127 80.897 284.77 77.734 C 282.196 76.947 279.467 76.668 277.154 75.828 C 326.76 75.5 376.02 75.5 425.5 75.5 C 425.5 124.521 425.5 173.542 425.5 223.032 Z"/>
  <path fill="none" opacity="1.000000" stroke="none" d="M 75.5 277.969 C 76.162 278.118 77.331 278.676 77.413 279.363 C 79 292.667 82.999 305.289 88.079 317.604 C 98.298 342.381 113.479 363.77 133.328 381.643 C 144.378 391.592 156.685 400.022 170.086 406.67 C 182.362 412.76 194.778 418.384 208.496 420.64 C 213.816 421.515 218.968 423.415 223.848 425.174 C 174.239 425.5 124.979 425.5 75.5 425.5 C 75.5 376.48 75.5 327.459 75.5 277.969 Z"/>
  <path fill="none" opacity="1.000000" stroke="none" d="M 223.031 75.5 C 222.88 76.164 222.323 77.33 221.632 77.415 C 208.162 79.08 195.436 83.207 182.929 88.353 C 158.392 98.449 137.364 113.542 119.62 133.066 C 109.492 144.21 101.273 156.83 94.156 170.178 C 86.308 184.896 81.831 200.742 77.596 216.703 C 76.946 219.154 76.627 221.693 75.827 223.846 C 75.5 174.24 75.5 124.98 75.5 75.5 C 124.52 75.5 173.541 75.5 223.031 75.5 Z"/>
  <path fill="none" opacity="1.000000" stroke="none" d="M 228.25 75.5 C 228.099 75.66 227.699 75.819 227.399 75.739 C 227.5 75.5 228 75.5 228.25 75.5 Z"/>
  <path fill="none" opacity="1.000000" stroke="none" d="M 75.5 227.75 C 75.647 227.744 75.794 227.987 75.72 228.365 C 75.5 228.5 75.5 228 75.5 227.75 Z"/>
  <path fill="#E64498" opacity="1.000000" stroke="none" d="M 269.677 349.779 C 268.964 362.931 268.406 374.581 267.776 387.772 C 256.21 387.772 245.525 387.772 237.004 387.772 C 235.294 355.148 233.954 324.159 231.668 293.237 C 231.412 289.733 226.354 284.499 222.686 283.642 C 181.264 273.952 165.392 243.884 160.168 205.696 C 159.236 198.908 162.405 191.555 164.175 181.725 C 170.855 186.866 174.586 189.735 179.446 193.472 C 179.819 187.007 180.131 181.905 180.41 176.8 C 180.567 173.866 180.364 170.873 180.863 168.006 C 183.28 154.211 235.229 107.43 246.662 112.63 C 261.917 119.561 279.242 113.073 294.458 127.887 C 307.933 140.999 314.824 153.52 317.32 170.684 C 318.771 169.919 320.227 169.155 321.679 168.395 C 325.13 172.943 330.218 177.021 331.701 182.141 C 335.169 194.147 337.264 206.602 339.196 218.99 C 339.992 224.081 340.81 230.636 338.396 234.527 C 324.376 257.084 313.881 283.228 283.94 290.813 C 279.386 291.965 273.514 296.729 272.6 300.801 C 271.798 304.388 278.456 309.073 279.356 313.747 C 280.628 320.377 280.881 327.757 279.231 334.215 C 277.911 339.37 273.094 343.628 269.677 349.779 Z"/>
  <path fill="#E83599" opacity="1.000000" stroke="none" d="M 237.471 232.155 C 237.315 231.949 237.197 231.421 237.226 230.722 C 237.418 230.977 237.464 231.405 237.471 232.155 Z"/>
  <path fill="#B5D684" opacity="1.000000" stroke="none" d="M 206.022 281.021 C 199.494 281.11 197.273 279.092 196.501 273.18 C 195.057 262.116 200.7 254.578 209.501 247.438 C 209.615 249.959 209.763 251.806 209.77 253.653 C 209.797 260.791 210.02 267.942 209.624 275.057 C 209.512 277.056 207.53 278.95 206.022 281.021 Z"/>
</svg>