<?xml version="1.0" encoding="utf-8"?>
<svg xmlns="http://www.w3.org/2000/svg" viewBox="0 0 175 175">
  <g transform="matrix(1, 0, 0, 1, -162.5, -162.5)">
    <path fill="#E74398" opacity="1.000000" stroke="none" d="M 252.368 325 C 250.839 325 249.309 325 247.721 324.978 C 247.322 324.944 246.982 324.932 246.611 324.909 C 245.68 324.842 244.778 324.809 243.881 324.725 C 242.516 324.599 241.147 324.483 239.792 324.279 C 237.946 324.001 236.106 323.676 234.275 323.312 C 231.805 322.823 229.38 322.149 226.984 321.375 C 224.103 320.445 221.289 319.345 218.543 318.068 C 216.56 317.146 214.616 316.148 212.72 315.059 C 210.259 313.645 207.889 312.094 205.602 310.413 C 202.945 308.461 200.429 306.341 198.056 304.055 C 196.508 302.565 195.024 301.012 193.608 299.394 C 191.572 297.067 189.683 294.628 187.946 292.072 C 185.747 288.838 183.822 285.449 182.152 281.912 C 181.023 279.52 180.026 277.075 179.159 274.577 C 178.363 272.284 177.685 269.957 177.117 267.596 C 176.471 264.916 175.962 262.21 175.635 259.475 C 175.427 257.738 175.316 255.99 175.163 254.247 C 175.139 253.969 175.126 253.691 175.105 253.379 C 175.099 253.16 175.105 252.974 175.088 252.79 C 175.074 252.648 175.03 252.508 175 252.368 C 175 250.788 175 249.208 175.022 247.569 C 175.08 246.929 175.108 246.347 175.154 245.767 C 175.253 244.491 175.346 243.214 175.469 241.939 C 175.652 240.031 175.945 238.138 176.291 236.253 C 176.864 233.139 177.632 230.075 178.6 227.061 C 179.408 224.542 180.342 222.07 181.416 219.652 C 182.397 217.444 183.477 215.285 184.665 213.18 C 186.059 210.71 187.59 208.327 189.252 206.027 C 191.287 203.212 193.506 200.549 195.915 198.047 C 197.608 196.288 199.378 194.608 201.234 193.019 C 203.972 190.676 206.859 188.537 209.899 186.606 C 212.562 184.913 215.324 183.401 218.18 182.058 C 220.561 180.939 222.995 179.948 225.481 179.088 C 228.126 178.174 230.813 177.408 233.545 176.797 C 235.728 176.309 237.928 175.912 240.146 175.622 C 242.299 175.341 244.461 175.137 246.668 175.067 C 247.013 175.044 247.333 175.156 247.632 175 C 249.212 175 250.792 175 252.432 175.022 C 252.808 175.05 253.126 175.056 253.478 175.067 C 254.222 175.112 254.933 175.146 255.642 175.193 C 257.481 175.315 259.31 175.525 261.132 175.796 C 264.026 176.225 266.885 176.821 269.71 177.585 C 272.51 178.343 275.255 179.263 277.948 180.339 C 280.393 181.316 282.773 182.432 285.101 183.661 C 287.126 184.729 289.095 185.893 291.012 187.145 C 292.663 188.223 294.268 189.365 295.831 190.569 C 297.996 192.238 300.066 194.02 302.032 195.918 C 303.469 197.304 304.852 198.743 306.177 200.239 C 308.329 202.668 310.319 205.222 312.142 207.905 C 314.318 211.109 316.228 214.464 317.884 217.965 C 319.036 220.403 320.052 222.895 320.936 225.441 C 321.755 227.795 322.443 230.188 323.02 232.612 C 323.513 234.688 323.913 236.783 324.225 238.894 C 324.295 239.371 324.347 239.85 324.399 240.329 C 324.432 240.627 324.437 240.928 324.477 241.226 C 324.534 241.662 324.643 242.094 324.675 242.532 C 324.774 243.873 324.848 245.217 324.927 246.595 C 324.923 246.821 324.913 247.012 324.926 247.201 C 324.936 247.346 324.974 247.489 325 247.632 C 325 249.187 325 250.741 324.979 252.356 C 324.926 253.266 324.914 254.118 324.855 254.966 C 324.775 256.129 324.67 257.291 324.554 258.451 C 324.351 260.472 324.027 262.475 323.638 264.469 C 322.894 268.29 321.854 272.03 320.52 275.687 C 319.031 279.768 317.199 283.689 315.025 287.45 C 313.42 290.227 311.645 292.888 309.701 295.439 C 307.951 297.736 306.076 299.926 304.073 302.004 C 302.406 303.734 300.66 305.385 298.833 306.947 C 296.144 309.247 293.313 311.356 290.329 313.258 C 287.346 315.159 284.243 316.84 281.021 318.303 C 278.16 319.603 275.23 320.719 272.229 321.646 C 268.324 322.853 264.346 323.737 260.295 324.283 C 258.532 324.52 256.765 324.707 254.99 324.814 C 254.471 324.845 253.953 324.884 253.399 324.919 C 253.201 324.921 253.037 324.912 252.874 324.926 C 252.704 324.94 252.536 324.974 252.368 325 M 257.493 295.302 C 257.516 295.069 257.538 294.836 257.58 294.576 C 257.576 294.534 257.572 294.492 257.57 294.384 C 257.762 292.002 257.981 289.623 258.034 287.238 C 258.396 287.034 258.741 286.844 259.082 286.646 C 260.009 286.109 260.904 285.528 261.678 284.778 C 262.935 283.558 263.662 282.09 263.766 280.328 C 263.844 279.001 263.614 277.715 263.213 276.46 C 263.115 276.154 262.924 275.864 262.721 275.611 C 262.457 275.281 262.086 275.112 261.652 275.105 C 261.249 275.099 260.952 275.314 260.676 275.564 C 260.274 275.927 260.006 276.392 259.717 276.842 C 259.388 277.355 259.04 277.857 258.69 278.357 C 258.6 278.486 258.472 278.591 258.304 278.767 C 258.284 278.56 258.268 278.439 258.261 278.317 C 258.209 277.339 258.177 276.36 258.099 275.384 C 258.055 274.835 258.05 274.296 258.116 273.75 C 258.338 271.917 258.469 270.079 258.367 268.231 C 258.338 267.715 258.62 267.37 259.13 267.285 C 259.23 267.268 259.332 267.262 259.432 267.243 C 262.793 266.616 266.051 265.66 269.191 264.295 C 273.099 262.597 275.958 259.808 277.91 256.049 C 278.109 255.665 278.324 255.289 278.548 254.92 C 279.242 253.774 280.058 252.716 280.893 251.673 C 281.982 250.312 283.089 248.964 284.151 247.583 C 285.092 246.359 285.89 245.042 286.452 243.595 C 286.994 242.201 287.269 240.76 287.153 239.262 C 287.086 238.388 286.989 237.515 286.884 236.643 C 286.78 235.784 286.639 234.928 286.339 234.113 C 286.209 233.758 286.044 233.402 285.824 233.098 C 285.385 232.491 284.748 232.484 284.238 233.039 C 283.929 233.375 283.623 233.714 283.283 234.026 C 283.272 234.017 283.261 234.009 283.26 233.945 C 283.299 233.851 283.338 233.757 283.378 233.664 C 284.045 232.094 284.456 230.467 284.51 228.755 C 284.572 226.813 284.387 224.898 283.947 223.005 C 283.68 221.855 283.438 220.7 283.317 219.52 C 283.252 218.891 283.129 218.264 282.983 217.648 C 282.864 217.152 282.63 216.695 282.274 216.315 C 281.883 215.897 281.403 215.781 280.886 216.007 C 280.565 216.147 280.242 216.333 279.994 216.575 C 279.541 217.017 279.101 217.484 278.732 217.996 C 278.191 218.748 277.718 219.548 277.174 220.301 C 277.159 220.295 277.143 220.288 277.126 220.212 C 277.128 220.033 277.127 219.855 277.132 219.677 C 277.184 217.68 277.246 215.684 277.117 213.687 C 277.024 212.262 276.834 210.851 276.416 209.482 C 275.9 207.794 275.107 206.227 274.252 204.693 C 273.919 204.094 273.532 203.523 273.138 202.961 C 272.713 202.355 272.213 201.81 271.608 201.374 C 270.851 200.828 270.046 200.613 269.132 200.979 C 268.644 201.174 268.275 201.037 267.971 200.606 C 267.847 200.431 267.735 200.241 267.652 200.043 C 267.392 199.427 267.027 198.877 266.604 198.366 C 265.361 196.869 263.932 195.573 262.326 194.475 C 262.045 194.282 261.741 194.11 261.426 193.981 C 260.283 193.513 259.152 193.477 258.06 194.147 C 257.323 194.599 256.584 195.048 255.847 195.5 C 255.708 195.585 255.572 195.675 255.434 195.763 C 255.307 195.68 255.2 195.613 255.095 195.543 C 253.732 194.628 252.352 193.742 250.892 192.986 C 250.18 192.618 249.459 192.264 248.671 192.088 C 248.378 192.023 248.066 191.99 247.768 192.013 C 247.096 192.066 246.59 192.458 246.135 192.918 C 245.685 193.372 245.327 193.898 245.006 194.45 C 244.937 194.567 244.862 194.681 244.787 194.802 C 244.623 194.755 244.491 194.71 244.356 194.68 C 243.898 194.58 243.439 194.476 242.978 194.39 C 242.527 194.306 242.122 194.438 241.757 194.704 C 241.623 194.801 241.494 194.904 241.365 195.008 C 240.677 195.565 240.121 196.245 239.589 196.945 C 239.152 197.52 238.595 197.922 237.912 198.15 C 237.671 198.23 237.428 198.308 237.183 198.372 C 236.298 198.603 235.409 198.823 234.525 199.058 C 233.332 199.375 232.347 200.031 231.553 200.965 C 231.208 201.371 230.892 201.806 230.602 202.252 C 229.997 203.183 229.556 204.2 229.104 205.211 C 228.448 206.676 227.866 208.165 227.513 209.738 C 227.242 210.946 227.093 212.168 227.015 213.408 C 226.988 213.411 226.961 213.414 226.917 213.361 C 226.82 212.992 226.749 212.614 226.622 212.255 C 226.445 211.754 226.269 211.243 226.014 210.78 C 225.667 210.147 225.198 210 224.531 210.274 C 224.122 210.443 223.733 210.666 223.348 210.888 C 222.149 211.579 221.399 212.612 221.058 213.948 C 220.85 214.766 220.778 215.601 220.742 216.442 C 220.714 217.116 220.676 217.789 220.642 218.463 C 220.576 219.784 220.482 221.105 220.451 222.427 C 220.407 224.254 220.556 226.064 221.111 227.82 C 221.127 227.87 221.113 227.929 221.113 228.056 C 220.388 227.455 219.705 226.906 219.043 226.335 C 218.39 225.77 217.972 225.05 217.729 224.225 C 217.618 223.846 217.517 223.464 217.383 223.094 C 217.267 222.773 217.146 222.444 216.965 222.158 C 216.554 221.507 215.857 221.293 215.133 221.551 C 214.728 221.696 214.397 221.948 214.117 222.271 C 213.727 222.721 213.473 223.248 213.275 223.801 C 212.334 226.428 212.088 229.127 212.467 231.885 C 212.618 232.981 212.805 234.072 212.968 235.167 C 213.319 237.53 213.901 239.827 214.858 242.025 C 215.334 243.12 215.817 244.214 216.144 245.37 C 216.783 247.63 217.887 249.654 219.349 251.481 C 220.743 253.222 222.252 254.86 223.896 256.369 C 226.181 258.466 228.753 260.102 231.691 261.13 C 233.443 261.742 235.203 262.332 236.96 262.929 C 237.852 263.231 238.752 263.498 239.69 263.626 C 240.078 263.679 240.461 263.785 240.842 263.884 C 241.566 264.072 242.092 264.5 242.354 265.213 C 242.656 266.036 242.947 266.863 243.241 267.689 C 243.248 267.708 243.229 267.735 243.211 267.8 C 242.92 267.846 242.611 267.9 242.301 267.941 C 241.834 268.004 241.362 268.033 240.901 268.122 C 240.3 268.237 240.061 268.689 240.262 269.261 C 240.308 269.393 240.366 269.52 240.425 269.647 C 240.929 270.732 241.451 271.808 241.93 272.903 C 242.169 273.448 242.373 274.017 242.513 274.594 C 242.876 276.092 243.041 277.626 243.187 279.157 C 243.375 281.12 243.537 283.086 243.674 285.053 C 243.845 287.502 244.066 289.949 244.034 292.408 C 244.024 293.184 244.059 293.963 244.004 294.736 C 243.921 295.902 243.794 297.067 243.654 298.228 C 243.514 299.403 243.335 300.573 243.011 301.715 C 242.686 302.861 242.553 304.031 242.51 305.218 C 242.492 305.726 242.7 306.117 243.088 306.398 C 243.339 306.581 243.635 306.727 243.933 306.816 C 244.623 307.022 245.34 307.009 246.053 307.001 C 246.673 306.994 247.246 306.759 247.843 306.638 C 248.867 306.43 249.822 306.532 250.576 307.364 C 250.808 307.619 251.099 307.716 251.437 307.678 C 251.575 307.662 251.714 307.641 251.85 307.612 C 252.745 307.419 253.638 307.218 254.533 307.028 C 255.204 306.885 255.884 306.779 256.549 306.613 C 257.303 306.425 257.432 306.131 257.24 305.384 C 256.982 304.383 256.81 303.362 256.893 302.325 C 257.075 300.055 257.286 297.788 257.504 295.493 C 257.5 295.451 257.495 295.409 257.493 295.302 Z"/>
    <path fill="none" opacity="1.000000" stroke="none" d="M 253.434 324.92 C 253.953 324.884 254.471 324.845 254.99 324.814 C 256.765 324.707 258.532 324.52 260.295 324.283 C 264.346 323.737 268.324 322.853 272.229 321.646 C 275.23 320.719 278.16 319.603 281.021 318.303 C 284.243 316.84 287.346 315.159 290.329 313.258 C 293.313 311.356 296.144 309.247 298.833 306.947 C 300.66 305.385 302.406 303.734 304.073 302.004 C 306.076 299.926 307.951 297.736 309.701 295.439 C 311.645 292.888 313.42 290.227 315.025 287.45 C 317.199 283.689 319.031 279.768 320.52 275.687 C 321.854 272.03 322.894 268.29 323.638 264.469 C 324.027 262.475 324.351 260.472 324.554 258.451 C 324.67 257.291 324.775 256.129 324.855 254.966 C 324.914 254.118 324.926 253.266 324.979 252.392 C 325 276.573 325 300.778 325 325 C 301.17 325 277.339 325 253.472 324.98 C 253.434 324.947 253.434 324.933 253.434 324.92 Z"/>
    <path fill="#F6BFDA" opacity="1.000000" stroke="none" d="M 253.399 324.919 C 253.434 324.933 253.434 324.947 253.436 324.98 C 253.104 325 252.771 325 252.403 325 C 252.536 324.974 252.704 324.94 252.874 324.926 C 253.037 324.912 253.201 324.921 253.399 324.919 Z"/>
    <path fill="#F6BFDA" opacity="1.000000" stroke="none" d="M 246.675 325 C 246.64 324.987 246.641 324.973 246.642 324.94 C 246.982 324.932 247.322 324.944 247.685 324.978 C 247.376 325 247.043 325 246.675 325 Z"/>
    <path fill="#F8CBE1" opacity="1.000000" stroke="none" d="M 175.105 253.379 C 175.09 253.417 175.072 253.422 175.027 253.432 C 175 253.104 175 252.771 175 252.403 C 175.03 252.508 175.074 252.648 175.088 252.79 C 175.105 252.974 175.099 253.16 175.105 253.379 Z"/>
    <path fill="#F6BFDA" opacity="1.000000" stroke="none" d="M 324.927 246.595 C 324.931 246.559 324.965 246.562 324.983 246.562 C 325 246.896 325 247.229 325 247.597 C 324.974 247.489 324.936 247.346 324.926 247.201 C 324.913 247.012 324.923 246.821 324.927 246.595 Z"/>
    <path fill="#F6BFDA" opacity="1.000000" stroke="none" d="M 253.402 175 C 253.437 175 253.441 175.031 253.442 175.047 C 253.126 175.056 252.808 175.05 252.467 175.022 C 252.751 175 253.059 175 253.402 175 Z"/>
    <path fill="#F6BFDA" opacity="1.000000" stroke="none" d="M 246.668 175.067 C 246.633 175.063 246.635 175.031 246.637 175.016 C 246.947 175 247.254 175 247.597 175 C 247.333 175.156 247.013 175.044 246.668 175.067 Z"/>
    <path fill="#FFFFFF" opacity="1.000000" stroke="none" d="M 277.216 220.328 C 277.718 219.548 278.191 218.748 278.732 217.996 C 279.101 217.484 279.541 217.017 279.994 216.575 C 280.242 216.333 280.565 216.147 280.886 216.007 C 281.403 215.781 281.883 215.897 282.274 216.315 C 282.63 216.695 282.864 217.152 282.983 217.648 C 283.129 218.264 283.252 218.891 283.317 219.52 C 283.438 220.7 283.68 221.855 283.947 223.005 C 284.387 224.898 284.572 226.813 284.51 228.755 C 284.456 230.467 284.045 232.094 283.378 233.664 C 283.338 233.757 283.299 233.851 283.246 233.988 C 283.239 234.062 283.247 234.093 283.254 234.123 C 283.274 234.1 283.295 234.076 283.315 234.052 C 283.623 233.714 283.929 233.375 284.238 233.039 C 284.748 232.484 285.385 232.491 285.824 233.098 C 286.044 233.402 286.209 233.758 286.339 234.113 C 286.639 234.928 286.78 235.784 286.884 236.643 C 286.989 237.515 287.086 238.388 287.153 239.262 C 287.269 240.76 286.994 242.201 286.452 243.595 C 285.89 245.042 285.092 246.359 284.151 247.583 C 283.089 248.964 281.982 250.312 280.893 251.673 C 280.058 252.716 279.242 253.774 278.548 254.92 C 278.324 255.289 278.109 255.665 277.91 256.049 C 275.958 259.808 273.099 262.597 269.191 264.295 C 266.051 265.66 262.793 266.616 259.432 267.243 C 259.332 267.262 259.23 267.268 259.13 267.285 C 258.62 267.37 258.338 267.715 258.367 268.231 C 258.469 270.079 258.338 271.917 258.116 273.75 C 258.05 274.296 258.055 274.835 258.099 275.384 C 258.177 276.36 258.209 277.339 258.261 278.317 C 258.268 278.439 258.284 278.56 258.304 278.767 C 258.472 278.591 258.6 278.486 258.69 278.357 C 259.04 277.857 259.388 277.355 259.717 276.842 C 260.006 276.392 260.274 275.927 260.676 275.564 C 260.952 275.314 261.249 275.099 261.652 275.105 C 262.086 275.112 262.457 275.281 262.721 275.611 C 262.924 275.864 263.115 276.154 263.213 276.46 C 263.614 277.715 263.844 279.001 263.766 280.328 C 263.662 282.09 262.935 283.558 261.678 284.778 C 260.904 285.528 260.009 286.109 259.082 286.646 C 258.741 286.844 258.396 287.034 258.034 287.238 C 257.981 289.623 257.762 292.002 257.559 294.43 C 257.552 294.519 257.557 294.561 257.561 294.603 C 257.538 294.836 257.516 295.069 257.483 295.348 C 257.476 295.435 257.48 295.477 257.485 295.519 C 257.286 297.788 257.075 300.055 256.893 302.325 C 256.81 303.362 256.982 304.383 257.24 305.384 C 257.432 306.131 257.303 306.425 256.549 306.613 C 255.884 306.779 255.204 306.885 254.533 307.028 C 253.638 307.218 252.745 307.419 251.85 307.612 C 251.714 307.641 251.575 307.662 251.437 307.678 C 251.099 307.716 250.808 307.619 250.576 307.364 C 249.822 306.532 248.867 306.43 247.843 306.638 C 247.246 306.759 246.673 306.994 246.053 307.001 C 245.34 307.009 244.623 307.022 243.933 306.816 C 243.635 306.727 243.339 306.581 243.088 306.398 C 242.7 306.117 242.492 305.726 242.51 305.218 C 242.553 304.031 242.686 302.861 243.011 301.715 C 243.335 300.573 243.514 299.403 243.654 298.228 C 243.794 297.067 243.921 295.902 244.004 294.736 C 244.059 293.963 244.024 293.184 244.034 292.408 C 244.066 289.949 243.845 287.502 243.674 285.053 C 243.537 283.086 243.375 281.12 243.187 279.157 C 243.041 277.626 242.876 276.092 242.513 274.594 C 242.373 274.017 242.169 273.448 241.93 272.903 C 241.451 271.808 240.929 270.732 240.425 269.647 C 240.366 269.52 240.308 269.393 240.262 269.261 C 240.061 268.689 240.3 268.237 240.901 268.122 C 241.362 268.033 241.834 268.004 242.301 267.941 C 242.611 267.9 242.92 267.846 243.211 267.8 C 243.229 267.735 243.248 267.708 243.241 267.689 C 242.947 266.863 242.656 266.036 242.354 265.213 C 242.092 264.5 241.566 264.072 240.842 263.884 C 240.461 263.785 240.078 263.679 239.69 263.626 C 238.752 263.498 237.852 263.231 236.96 262.929 C 235.203 262.332 233.443 261.742 231.691 261.13 C 228.753 260.102 226.181 258.466 223.896 256.369 C 222.252 254.86 220.743 253.222 219.349 251.481 C 217.887 249.654 216.783 247.63 216.144 245.37 C 215.817 244.214 215.334 243.12 214.858 242.025 C 213.901 239.827 213.319 237.53 212.968 235.167 C 212.805 234.072 212.618 232.981 212.467 231.885 C 212.088 229.127 212.334 226.428 213.275 223.801 C 213.473 223.248 213.727 222.721 214.117 222.271 C 214.397 221.948 214.728 221.696 215.133 221.551 C 215.857 221.293 216.554 221.507 216.965 222.158 C 217.146 222.444 217.267 222.773 217.383 223.094 C 217.517 223.464 217.618 223.846 217.729 224.225 C 217.972 225.05 218.39 225.77 219.043 226.335 C 219.705 226.906 220.388 227.455 221.113 228.056 C 221.113 227.929 221.127 227.87 221.111 227.82 C 220.556 226.064 220.407 224.254 220.451 222.427 C 220.482 221.105 220.576 219.784 220.642 218.463 C 220.676 217.789 220.714 217.116 220.742 216.442 C 220.778 215.601 220.85 214.766 221.058 213.948 C 221.399 212.612 222.149 211.579 223.348 210.888 C 223.733 210.666 224.122 210.443 224.531 210.274 C 225.198 210 225.667 210.147 226.014 210.78 C 226.269 211.243 226.445 211.754 226.622 212.255 C 226.749 212.614 226.82 212.992 226.922 213.415 C 226.956 213.564 226.985 213.659 227.014 213.754 C 227.038 213.747 227.063 213.74 227.087 213.733 C 227.076 213.623 227.066 213.514 227.056 213.404 C 227.093 212.168 227.242 210.946 227.513 209.738 C 227.866 208.165 228.448 206.676 229.104 205.211 C 229.556 204.2 229.997 203.183 230.602 202.252 C 230.892 201.806 231.208 201.371 231.553 200.965 C 232.347 200.031 233.332 199.375 234.525 199.058 C 235.409 198.823 236.298 198.603 237.183 198.372 C 237.428 198.308 237.671 198.23 237.912 198.15 C 238.595 197.922 239.152 197.52 239.589 196.945 C 240.121 196.245 240.677 195.565 241.365 195.008 C 241.494 194.904 241.623 194.801 241.757 194.704 C 242.122 194.438 242.527 194.306 242.978 194.39 C 243.439 194.476 243.898 194.58 244.356 194.68 C 244.491 194.71 244.623 194.755 244.787 194.802 C 244.862 194.681 244.937 194.567 245.006 194.45 C 245.327 193.898 245.685 193.372 246.135 192.918 C 246.59 192.458 247.096 192.066 247.768 192.013 C 248.066 191.99 248.378 192.023 248.671 192.088 C 249.459 192.264 250.18 192.618 250.892 192.986 C 252.352 193.742 253.732 194.628 255.095 195.543 C 255.2 195.613 255.307 195.68 255.434 195.763 C 255.572 195.675 255.708 195.585 255.847 195.5 C 256.584 195.048 257.323 194.599 258.06 194.147 C 259.152 193.477 260.283 193.513 261.426 193.981 C 261.741 194.11 262.045 194.282 262.326 194.475 C 263.932 195.573 265.361 196.869 266.604 198.366 C 267.027 198.877 267.392 199.427 267.652 200.043 C 267.735 200.241 267.847 200.431 267.971 200.606 C 268.275 201.037 268.644 201.174 269.132 200.979 C 270.046 200.613 270.851 200.828 271.608 201.374 C 272.213 201.81 272.713 202.355 273.138 202.961 C 273.532 203.523 273.919 204.094 274.252 204.693 C 275.107 206.227 275.9 207.794 276.416 209.482 C 276.834 210.851 277.024 212.262 277.117 213.687 C 277.246 215.684 277.184 217.68 277.132 219.677 C 277.127 219.855 277.128 220.033 277.121 220.264 C 277.124 220.339 277.132 220.362 277.139 220.384 C 277.165 220.366 277.19 220.347 277.216 220.328 Z"/>
    <path fill="#EE82B9" opacity="1.000000" stroke="none" d="M 227.035 213.406 C 227.066 213.514 227.076 213.623 227.087 213.733 C 227.063 213.74 227.038 213.747 227.014 213.754 C 226.985 213.659 226.956 213.564 226.931 213.443 C 226.961 213.414 226.988 213.411 227.035 213.406 Z"/>
    <path fill="#F194C3" opacity="1.000000" stroke="none" d="M 257.571 294.589 C 257.557 294.561 257.552 294.519 257.558 294.464 C 257.572 294.492 257.576 294.534 257.571 294.589 Z"/>
    <path fill="#F194C3" opacity="1.000000" stroke="none" d="M 257.494 295.506 C 257.48 295.477 257.476 295.435 257.481 295.38 C 257.495 295.409 257.5 295.451 257.494 295.506 Z"/>
    <path fill="#F194C3" opacity="1.000000" stroke="none" d="M 277.195 220.314 C 277.19 220.347 277.165 220.366 277.139 220.384 C 277.132 220.362 277.124 220.339 277.122 220.299 C 277.143 220.288 277.159 220.295 277.195 220.314 Z"/>
    <path fill="#E74398" opacity="1.000000" stroke="none" d="M 283.299 234.039 C 283.295 234.076 283.274 234.1 283.254 234.123 C 283.247 234.093 283.239 234.062 283.241 234.016 C 283.261 234.009 283.272 234.017 283.299 234.039 Z"/>
  </g>
</svg>