<svg version="1.1" id="Layer_1" xmlns="http://www.w3.org/2000/svg" xmlns:xlink="http://www.w3.org/1999/xlink" x="0px" y="0px"
	 width="100%" viewBox="0 0 350 350" enable-background="new 0 0 350 350" xml:space="preserve">
<circle cx="175" cy="175" r="175" fill="#B4D884" />
<path fill="none" opacity="1.000000" stroke="none"
	d="
M203.468658,351.000000 
	C203.613785,350.336823 204.159241,349.179260 204.851471,349.083557 
	C218.373566,347.214111 231.272400,343.284698 243.855316,338.036926 
	C267.496826,328.177063 287.905396,313.702271 305.350555,295.084747 
	C317.283997,282.349396 326.853790,267.789337 334.585297,252.243622 
	C339.284180,242.795609 342.438965,232.520370 345.647247,222.413528 
	C347.443268,216.755722 347.897400,210.676239 349.048920,204.804947 
	C349.222626,203.919312 349.903381,203.133118 350.674805,202.650452 
	C351.000000,252.260330 351.000000,301.520660 351.000000,351.000000 
	C301.979309,351.000000 252.958313,351.000000 203.468658,351.000000 
z"/>
<path fill="none" opacity="1.000000" stroke="none"
	d="
M351.000000,148.531342 
	C350.336914,148.384155 349.176086,147.834320 349.084351,147.142700 
	C347.286530,133.586548 343.257904,120.695953 338.018402,108.105347 
	C327.864502,83.705544 312.929993,62.568142 293.309082,45.079666 
	C277.961426,31.400013 260.826508,20.020805 241.241058,13.044798 
	C231.045502,9.413322 220.627945,6.396894 210.270782,3.233219 
	C207.696411,2.446857 204.967194,2.167397 202.654572,1.327470 
	C252.260330,1.000000 301.520660,1.000000 351.000000,1.000000 
	C351.000000,50.020676 351.000000,99.041679 351.000000,148.531342 
z"/>
<path fill="none" opacity="1.000000" stroke="none"
	d="
M0.999997,203.468658 
	C1.662892,203.618011 2.831851,204.175644 2.913845,204.862946 
	C4.500946,218.166626 8.499650,230.788620 13.579089,243.103699 
	C23.798349,267.880310 38.979214,289.269562 58.828945,307.142670 
	C69.877998,317.091461 82.185349,325.521179 95.586876,332.169769 
	C107.862778,338.259949 120.278854,343.883759 133.996582,346.139648 
	C139.316742,347.014557 144.468323,348.914673 149.348358,350.673889 
	C99.739670,351.000000 50.479336,351.000000 1.000000,351.000000 
	C1.000000,301.979309 1.000000,252.958313 0.999997,203.468658 
z"/>
<path fill="none" opacity="1.000000" stroke="none"
	d="
M148.531342,1.000000 
	C148.380646,1.663076 147.823486,2.829476 147.132767,2.914816 
	C133.662842,4.579029 120.936684,8.706609 108.429291,13.852885 
	C83.892616,23.948723 62.864384,39.041058 45.120354,58.565174 
	C34.992023,69.709587 26.773708,82.329063 19.656467,95.677147 
	C11.808722,110.395264 7.331717,126.241455 3.096463,142.202805 
	C2.446120,144.653748 2.127220,147.192642 1.327517,149.345428 
	C1.000000,99.739670 1.000000,50.479336 1.000000,1.000000 
	C50.020676,1.000000 99.041679,1.000000 148.531342,1.000000 
z"/>
<path fill="none" opacity="1.000000" stroke="none"
	d="
M153.750000,1.000000 
	C153.599884,1.159345 153.199768,1.318689 152.899826,1.239017 
	C153.000000,1.000000 153.500000,1.000000 153.750000,1.000000 
z"/>
<path fill="none" opacity="1.000000" stroke="none"
	d="
M1.000001,153.250000 
	C1.147311,153.243042 1.294621,153.486099 1.220966,153.864563 
	C1.000000,154.000000 1.000000,153.500000 1.000001,153.250000 
z"/>
<path fill="#E64598" opacity="1.000000" stroke="none" 
	d="
M201.551361,215.663269 
	C193.884186,193.777222 186.366318,172.276917 178.852554,150.775162 
	C177.292358,146.310364 175.695312,141.928818 170.308167,140.604172 
	C169.793259,140.477554 169.588013,139.091492 169.080643,137.926514 
	C185.321152,137.926514 201.043640,137.926514 216.766129,137.926514 
	C216.954605,138.431641 217.143097,138.936768 217.331589,139.441895 
	C215.912384,139.967377 214.517502,140.850311 213.069229,140.948944 
	C209.269394,141.207687 207.900665,143.247650 208.870651,146.613647 
	C212.863281,160.468765 217.022812,174.275757 221.996460,188.082367 
	C225.096085,176.035995 228.316910,164.019150 231.262405,151.935196 
	C234.410599,139.019684 234.298920,139.082260 247.653793,138.832260 
	C250.793839,138.773483 252.326172,139.544083 253.302841,142.788788 
	C258.046082,158.546707 263.094360,174.212891 268.052704,189.905838 
	C268.387085,190.964203 268.870361,191.975540 270.428467,193.126511 
	C273.026123,182.343719 276.125427,171.650848 278.078979,160.752609 
	C279.994354,150.067322 277.203522,145.738968 267.708191,140.929169 
	C267.023346,140.582275 266.692780,139.536087 266.197479,138.815033 
	C266.835693,138.433807 267.487671,137.700043 268.110046,137.724319 
	C277.275055,138.082108 286.436127,138.540680 295.828552,139.517181 
	C284.917542,146.677460 284.265503,158.714798 280.753662,169.163040 
	C275.669006,184.290771 271.245880,199.640106 266.300385,214.816666 
	C265.865448,216.151382 263.702057,217.722580 262.263306,217.804092 
	C250.645142,218.462280 250.522369,218.403381 246.675873,207.678589 
	C242.297836,195.471756 238.159546,183.178986 233.908234,170.926620 
	C233.373245,169.384766 232.784561,167.861572 231.249710,166.259735 
	C226.734772,183.282990 222.219818,200.306229 217.550446,217.911743 
	C212.910629,217.911743 208.293259,217.987686 203.683990,217.828690 
	C203.003708,217.805237 202.361786,216.669571 201.551361,215.663269 
z"/>
<path fill="#E64598" opacity="1.000000" stroke="none" 
	d="
M162.932419,157.975800 
	C163.021103,172.465515 163.110443,186.955215 163.197662,201.444931 
	C163.208694,203.277496 163.144791,205.112915 163.225327,206.942200 
	C163.502747,213.243484 164.722702,214.000351 171.564514,212.118042 
	C170.871246,213.236465 170.446289,214.867813 169.442596,215.392838 
	C160.755737,219.937042 151.501633,220.797958 142.431976,217.345581 
	C139.356323,216.174850 137.314240,212.288818 134.674118,209.511337 
	C129.399063,216.115555 121.654816,219.520859 112.206932,219.183258 
	C103.631020,218.876831 97.231956,214.794312 94.948418,208.001083 
	C92.256287,199.992371 94.480095,190.596924 101.192856,185.945374 
	C105.763733,182.778030 111.061646,180.449249 116.318451,178.518829 
	C139.263290,170.092926 135.196274,169.880676 135.073456,150.137451 
	C135.006592,139.389816 126.686310,135.328857 116.574577,140.689392 
	C117.719269,141.545990 118.711914,142.333008 119.748459,143.057205 
	C126.019936,147.438904 127.903534,155.951431 123.919563,161.971664 
	C119.913864,168.024734 109.825836,170.041245 103.820534,165.989273 
	C98.095657,162.126541 96.465164,152.978989 100.562973,146.737335 
	C105.062332,139.884064 112.278801,137.273392 119.751717,136.423492 
	C127.608086,135.529968 135.679367,135.496933 143.567719,136.155014 
	C155.394165,137.141632 161.319229,143.460114 162.749603,155.816681 
	C162.697632,156.920975 162.815018,157.448380 162.932419,157.975800 
M131.906754,206.391617 
	C133.030777,204.449539 135.012863,202.555283 135.124268,200.556747 
	C135.520920,193.441269 135.297775,186.290253 135.270599,179.152832 
	C135.263565,177.305466 135.115295,175.458633 135.001480,172.937775 
	C126.200592,180.077820 120.557762,187.615097 122.001617,198.679214 
	C122.773186,204.591705 124.994286,206.609283 131.906754,206.391617 
z"/>
<path fill="#E64598" opacity="1.000000" stroke="none" 
	d="
M50.998795,217.880615 
	C40.088573,217.881119 29.677994,217.881119 19.267414,217.881119 
	C19.112879,217.515549 18.958344,217.149963 18.803808,216.784393 
	C19.502066,216.184036 20.121515,215.212311 20.911592,215.044662 
	C25.436720,214.084442 27.357327,211.088669 27.357050,206.799133 
	C27.355803,187.503967 27.346746,168.207626 27.108238,148.914597 
	C27.060787,145.076233 25.302349,141.876923 20.914873,140.914764 
	C20.069035,140.729263 19.450235,139.508438 19.055553,139.103027 
	C31.328196,138.149887 43.215157,137.226715 55.369072,136.282806 
	C55.627266,139.100800 55.859699,141.637665 56.189941,145.242004 
	C60.700905,139.150650 66.015068,136.245102 72.555595,135.289810 
	C79.558983,134.266937 85.456741,136.772552 88.174347,142.383911 
	C91.667870,149.597397 90.263123,158.680786 84.974113,163.077255 
	C80.344933,166.925232 71.186607,167.264175 66.172646,163.773087 
	C61.737392,160.684937 60.433266,153.270386 63.480011,147.449188 
	C64.545067,145.414246 66.056686,143.613052 67.364670,141.705307 
	C61.962303,141.597214 56.020077,147.124298 55.930382,153.360611 
	C55.679050,170.834961 55.735130,188.316772 55.931221,205.792694 
	C55.989326,210.971405 59.152840,213.729736 64.889336,214.872543 
	C66.291504,215.151871 67.671204,215.543991 69.061234,215.884262 
	C69.008026,216.549545 68.954819,217.214844 68.901619,217.880127 
	C63.100555,217.880127 57.299496,217.880127 50.998795,217.880615 
z"/>
<path fill="#E64498" opacity="1.000000" stroke="none" 
	d="
M312.279053,250.729950 
	C312.077301,254.458405 311.919312,257.761627 311.740479,261.501160 
	C308.461304,261.501160 305.432526,261.501160 303.016144,261.501160 
	C302.531952,252.251724 302.151306,243.465942 301.503754,234.699860 
	C301.430298,233.705261 299.996399,232.221527 298.956207,231.978241 
	C287.212250,229.231216 282.712250,220.706482 281.231140,209.879181 
	C280.967804,207.954071 281.866089,205.870056 282.367859,203.082230 
	C284.262665,204.540253 285.319977,205.353851 286.697571,206.413895 
	C286.803802,204.580338 286.891235,203.133713 286.970123,201.686615 
	C287.015472,200.854996 286.957642,200.007004 287.099976,199.193253 
	C287.784088,195.282455 302.513214,182.020020 305.754425,183.492523 
	C310.080933,185.458099 314.991089,183.618988 319.305511,187.818329 
	C323.125671,191.536606 325.079285,195.086761 325.787476,199.952332 
	C326.199493,199.736038 326.611511,199.519745 327.023529,199.303452 
	C328.001465,200.593719 329.444214,201.749512 329.864136,203.201202 
	C330.848969,206.605728 331.442810,210.136520 331.989960,213.648132 
	C332.214996,215.092361 332.447021,216.950714 331.762146,218.053040 
	C327.788727,224.448807 324.812805,231.861649 316.323761,234.011307 
	C315.032471,234.338272 313.367004,235.689835 313.108948,236.843582 
	C312.881470,237.860397 314.768402,239.188614 315.023163,240.513626 
	C315.384552,242.393295 315.456604,244.485977 314.988220,246.317856 
	C314.614777,247.778488 313.248444,248.985275 312.279053,250.729950 
z"/>
<path fill="#E83599" opacity="1.000000" stroke="none" 
	d="
M162.971497,157.654297 
	C162.815018,157.448380 162.697632,156.920975 162.726196,156.221207 
	C162.918274,156.476837 162.964417,156.904800 162.971497,157.654297 
z"/>
<path fill="#B5D684" opacity="1.000000" stroke="none" 
	d="
M131.522552,206.520538 
	C124.994286,206.609283 122.773186,204.591705 122.001617,198.679214 
	C120.557762,187.615097 126.200592,180.077820 135.001480,172.937775 
	C135.115295,175.458633 135.263565,177.305466 135.270599,179.152832 
	C135.297775,186.290253 135.520920,193.441269 135.124268,200.556747 
	C135.012863,202.555283 133.030777,204.449539 131.522552,206.520538 
z"/>
</svg>