<?xml version="1.0" encoding="utf-8"?>
<svg xmlns="http://www.w3.org/2000/svg" viewBox="0 0 500 500">
  <circle cx="250" cy="250" r="175" fill="#B4D884"/>
  <path fill="#E64598" opacity="1.000000" stroke="none" d="M 276.552 290.663 C 268.885 268.777 261.367 247.277 253.853 225.775 C 252.293 221.31 250.696 216.929 245.309 215.604 C 244.794 215.478 244.588 214.091 244.081 212.926 C 260.322 212.926 276.044 212.926 291.767 212.926 C 291.955 213.432 292.144 213.937 292.332 214.442 C 290.913 214.967 289.518 215.85 288.07 215.949 C 284.27 216.208 282.901 218.248 283.871 221.614 C 287.864 235.469 292.023 249.276 296.997 263.082 C 300.097 251.036 303.317 239.019 306.263 226.935 C 309.411 214.02 309.299 214.082 322.654 213.832 C 325.794 213.773 327.327 214.544 328.303 217.789 C 333.047 233.547 338.095 249.213 343.053 264.906 C 343.388 265.964 343.871 266.975 345.429 268.126 C 348.027 257.344 351.126 246.651 353.079 235.753 C 354.995 225.067 352.204 220.739 342.709 215.929 C 342.024 215.582 341.693 214.536 341.198 213.815 C 341.836 213.434 342.488 212.7 343.111 212.724 C 352.276 213.082 361.437 213.541 370.829 214.517 C 359.918 221.677 359.266 233.715 355.754 244.163 C 350.669 259.291 346.246 274.64 341.301 289.817 C 340.866 291.151 338.703 292.723 337.264 292.804 C 325.646 293.462 325.523 293.403 321.676 282.679 C 317.298 270.472 313.16 258.179 308.909 245.927 C 308.374 244.385 307.785 242.862 306.25 241.26 C 301.735 258.283 297.22 275.306 292.551 292.912 C 287.911 292.912 283.294 292.988 278.684 292.829 C 278.004 292.805 277.362 291.67 276.552 290.663 Z"/>
  <path fill="#E64598" opacity="1.000000" stroke="none" d="M 237.933 232.976 C 238.022 247.465 238.111 261.955 238.198 276.445 C 238.209 278.277 238.145 280.113 238.226 281.942 C 238.503 288.243 239.723 289 246.565 287.118 C 245.872 288.236 245.447 289.868 244.443 290.393 C 235.756 294.937 226.502 295.798 217.432 292.346 C 214.357 291.175 212.315 287.289 209.675 284.511 C 204.4 291.116 196.655 294.521 187.207 294.183 C 178.632 293.877 172.232 289.794 169.949 283.001 C 167.257 274.992 169.481 265.597 176.193 260.945 C 180.764 257.778 186.062 255.449 191.319 253.519 C 214.264 245.093 210.197 244.881 210.074 225.137 C 210.007 214.39 201.687 210.329 191.575 215.689 C 192.72 216.546 193.712 217.333 194.749 218.057 C 201.02 222.439 202.904 230.951 198.92 236.972 C 194.914 243.025 184.826 245.041 178.821 240.989 C 173.096 237.126 171.466 227.979 175.563 221.737 C 180.063 214.884 187.279 212.273 194.752 211.423 C 202.609 210.53 210.68 210.497 218.568 211.155 C 230.395 212.142 236.32 218.46 237.75 230.817 C 237.698 231.921 237.816 232.448 237.933 232.976 M 206.907 281.392 C 208.031 279.449 210.013 277.555 210.125 275.557 C 210.521 268.441 210.298 261.29 210.271 254.153 C 210.264 252.305 210.116 250.459 210.002 247.938 C 201.201 255.078 195.558 262.615 197.002 273.679 C 197.774 279.592 199.995 281.609 206.907 281.392 Z"/>
  <path fill="#E64598" opacity="1.000000" stroke="none" d="M 125.999 292.881 C 115.089 292.881 104.678 292.881 94.268 292.881 C 94.113 292.515 93.959 292.15 93.804 291.784 C 94.503 291.184 95.122 290.212 95.912 290.045 C 100.437 289.084 102.358 286.089 102.358 281.799 C 102.356 262.504 102.347 243.208 102.109 223.915 C 102.061 220.076 100.303 216.877 95.915 215.915 C 95.07 215.729 94.451 214.508 94.056 214.103 C 106.329 213.15 118.216 212.227 130.37 211.283 C 130.628 214.101 130.86 216.638 131.19 220.242 C 135.701 214.151 141.016 211.245 147.556 210.29 C 154.559 209.267 160.457 211.773 163.175 217.384 C 166.668 224.597 165.264 233.681 159.975 238.077 C 155.345 241.925 146.187 242.264 141.173 238.773 C 136.738 235.685 135.434 228.27 138.48 222.449 C 139.546 220.414 141.057 218.613 142.365 216.705 C 136.963 216.597 131.021 222.124 130.931 228.361 C 130.68 245.835 130.736 263.317 130.932 280.793 C 130.99 285.971 134.153 288.73 139.89 289.872 C 141.292 290.152 142.672 290.544 144.062 290.884 C 144.009 291.549 143.955 292.215 143.902 292.88 C 138.101 292.88 132.3 292.88 125.999 292.881 Z"/>
  <path fill="#E64498" opacity="1.000000" stroke="none" d="M 387.28 325.73 C 387.078 329.458 386.92 332.762 386.741 336.501 C 383.462 336.501 380.433 336.501 378.017 336.501 C 377.532 327.252 377.152 318.466 376.504 309.7 C 376.431 308.705 374.997 307.221 373.957 306.978 C 362.213 304.231 357.713 295.706 356.232 284.879 C 355.968 282.954 356.867 280.87 357.368 278.082 C 359.263 279.54 360.32 280.354 361.698 281.414 C 361.804 279.58 361.892 278.134 361.971 276.687 C 362.016 275.855 361.958 275.007 362.1 274.193 C 362.785 270.282 377.514 257.02 380.755 258.492 C 385.081 260.458 389.992 258.619 394.306 262.818 C 398.126 266.537 400.08 270.087 400.788 274.952 C 401.2 274.736 401.612 274.52 402.024 274.303 C 403.002 275.594 404.445 276.749 404.865 278.201 C 405.849 281.606 406.443 285.136 406.99 288.648 C 407.215 290.092 407.448 291.951 406.763 293.053 C 402.789 299.449 399.813 306.862 391.324 309.011 C 390.033 309.338 388.367 310.69 388.109 311.844 C 387.882 312.86 389.769 314.189 390.024 315.514 C 390.385 317.393 390.457 319.486 389.989 321.318 C 389.615 322.778 388.249 323.985 387.28 325.73 Z"/>
  <path fill="#E83599" opacity="1.000000" stroke="none" d="M 237.972 232.654 C 237.816 232.448 237.698 231.921 237.727 231.221 C 237.919 231.477 237.965 231.905 237.972 232.654 Z"/>
  <path fill="#B5D684" opacity="1.000000" stroke="none" d="M 206.523 281.52 C 199.995 281.609 197.774 279.592 197.002 273.679 C 195.558 262.615 201.201 255.078 210.002 247.938 C 210.116 250.459 210.264 252.305 210.271 254.153 C 210.298 261.29 210.521 268.441 210.125 275.557 C 210.013 277.555 208.031 279.449 206.523 281.52 Z"/>
</svg>