<svg version="1.1" id="Layer_1" xmlns="http://www.w3.org/2000/svg" xmlns:xlink="http://www.w3.org/1999/xlink" x="0px" y="0px"
	 width="100%" viewBox="0 0 3927 3927" enable-background="new 0 0 3927 3927" xml:space="preserve">
<path fill="#E74398" opacity="1.000000" stroke="none"
	d="
M2028.000000,3930.000000
	C1987.958252,3930.000000 1947.916382,3930.000000 1906.322021,3929.433594
	C1895.869019,3928.543701 1886.968506,3928.220459 1877.260376,3927.604492
	C1852.884033,3925.858154 1829.260620,3924.993408 1805.759399,3922.812256
	C1770.010864,3919.494629 1734.164917,3916.473877 1698.692017,3911.126709
	C1650.355103,3903.840088 1602.164795,3895.317383 1554.211792,3885.810303
	C1489.532104,3872.987061 1426.031128,3855.335693 1363.290527,3835.075439
	C1287.853638,3810.715332 1214.144531,3781.914795 1142.241211,3748.478516
	C1090.309814,3724.329590 1039.418457,3698.202393 989.762817,3669.675293
	C925.325623,3632.656250 863.246948,3592.028809 803.359009,3548.019287
	C733.793457,3496.898438 667.907837,3441.386963 605.752075,3381.533691
	C565.222778,3342.505859 526.357300,3301.836426 489.271637,3259.450684
	C435.959015,3198.519287 386.508972,3134.648926 341.004791,3067.717529
	C283.434326,2983.037109 233.007706,2894.283447 189.296219,2801.673340
	C159.727875,2739.027832 133.604538,2674.992188 110.902794,2609.578857
	C90.068573,2549.546387 72.314995,2488.598145 57.431732,2426.788330
	C40.531387,2356.602051 27.197895,2285.751709 18.619007,2214.119141
	C13.172658,2168.642578 10.264525,2122.861816 6.273305,2077.212402
	C5.638021,2069.946289 5.293848,2062.655029 4.751333,2054.494629
	C4.588345,2048.763428 4.762038,2043.886597 4.301968,2039.070557
	C3.945711,2035.341064 2.796646,2031.687378 2.000005,2028.000000
	C2.000000,1986.624878 2.000000,1945.249756 2.581689,1902.339600
	C4.101773,1885.586792 4.837319,1870.353149 6.020050,1855.154297
	C8.621011,1821.730103 11.066430,1788.286987 14.272067,1754.918335
	C19.072105,1704.953003 26.734629,1655.379028 35.813087,1606.013550
	C50.808098,1524.476074 70.911797,1444.225586 96.260773,1365.299805
	C117.443718,1299.345215 141.888626,1234.616821 170.014984,1171.296997
	C195.703445,1113.465332 223.982925,1056.928955 255.089066,1001.818298
	C291.605927,937.121460 331.683411,874.713928 375.212616,814.499573
	C428.510742,740.771667 486.620056,671.041809 549.684143,605.525940
	C594.021484,559.464844 640.371155,515.469421 688.988647,473.857513
	C760.670288,412.505035 836.268066,356.496887 915.876587,305.912476
	C985.612671,261.601166 1057.943481,221.983383 1132.735229,186.829926
	C1195.103271,157.515854 1258.825806,131.567978 1323.941528,109.057091
	C1393.194946,85.115807 1463.558472,65.067047 1535.086304,49.063900
	C1592.266602,36.270771 1649.880737,25.884197 1707.950684,18.296360
	C1764.337524,10.928459 1820.951050,5.597741 1878.753662,3.761676
	C1887.778076,3.164521 1896.160522,6.085787 1904.000000,2.000000
	C1945.375122,2.000000 1986.750244,2.000000 2029.676392,2.566028
	C2039.541870,3.301026 2047.856445,3.469997 2057.071045,3.766192
	C2076.565430,4.936025 2095.170654,5.815073 2113.751709,7.053122
	C2161.894043,10.260789 2209.791016,15.756878 2257.511963,22.835634
	C2333.301514,34.078060 2408.170898,49.676094 2482.141357,69.691338
	C2555.465576,89.531738 2627.352783,113.627907 2697.869873,141.806900
	C2761.880859,167.386169 2824.202881,196.625061 2885.172607,228.789246
	C2938.211182,256.769287 2989.769287,287.245911 3039.963867,320.023682
	C3083.198242,348.256042 3125.239746,378.180511 3166.148193,409.704865
	C3222.861816,453.409210 3277.058838,500.059784 3328.555664,549.763245
	C3366.168457,586.065796 3402.381836,623.752747 3437.085449,662.912781
	C3493.454346,726.519653 3545.549561,793.411743 3593.284424,863.684937
	C3650.262451,947.564819 3700.300049,1035.432129 3743.651123,1127.121948
	C3773.826416,1190.944458 3800.418945,1256.216431 3823.587402,1322.879395
	C3845.013184,1384.527100 3863.045654,1447.183838 3878.142822,1510.674683
	C3891.070068,1565.040161 3901.543945,1619.889282 3909.696289,1675.172119
	C3911.536133,1687.648926 3912.901855,1700.200073 3914.273438,1712.740112
	C3915.127441,1720.549438 3915.261963,1728.445068 3916.292969,1736.225830
	C3917.808105,1747.660767 3920.645020,1758.968140 3921.493164,1770.435181
	C3924.091553,1805.563721 3926.010254,1840.742432 3928.092285,1876.829102
	C3927.989746,1882.743408 3927.734619,1887.747314 3928.069824,1892.711426
	C3928.325439,1896.500366 3929.329102,1900.239014 3930.000000,1904.000000
	C3930.000000,1944.708496 3930.000000,1985.416870 3929.457031,2027.694092
	C3928.059570,2051.528320 3927.759521,2073.832275 3926.216064,2096.050049
	C3924.100586,2126.500977 3921.360596,2156.918213 3918.316162,2187.292725
	C3913.010986,2240.222656 3904.508789,2292.682861 3894.342285,2344.889160
	C3874.854248,2444.963135 3847.620605,2542.881836 3812.676270,2638.644531
	C3773.680176,2745.512207 3725.719238,2848.201660 3668.775879,2946.704102
	C3626.748291,3019.404297 3580.273193,3089.105957 3529.371094,3155.898438
	C3483.538330,3216.039062 3434.442627,3273.384521 3382.001465,3327.807373
	C3338.335693,3373.123535 3292.628174,3416.342529 3244.770752,3457.264404
	C3174.348145,3517.481689 3100.229492,3572.718506 3022.093994,3622.507080
	C2943.966553,3672.290527 2862.714111,3716.327393 2778.331543,3754.640381
	C2703.408691,3788.658691 2626.692139,3817.897949 2548.104248,3842.179688
	C2445.841797,3873.776367 2341.686523,3896.921631 2235.578613,3911.215332
	C2189.429443,3917.431885 2143.160645,3922.322754 2096.674561,3925.128662
	C2083.087402,3925.948486 2069.512451,3926.968750 2055.010742,3927.890869
	C2049.812744,3927.919678 2045.515503,3927.708252 2041.264526,3928.058105
	C2036.819824,3928.423828 2032.419556,3929.329834 2028.000000,3930.000000
M2162.229736,3152.310059
	C2162.818359,3146.206787 2163.406738,3140.103271 2164.502930,3133.298340
	C2164.387939,3132.199463 2164.272705,3131.100342 2164.231934,3128.263184
	C2169.249023,3065.900391 2175.002197,3003.587646 2176.389893,2941.128174
	C2185.861328,2935.795654 2194.909424,2930.826660 2203.837891,2925.650391
	C2228.102783,2911.583252 2251.550537,2896.352539 2271.800537,2876.715332
	C2304.730225,2844.783691 2323.754639,2806.316895 2326.479492,2760.184082
	C2328.532227,2725.432617 2322.495605,2691.769775 2311.999512,2658.900391
	C2309.444092,2650.897461 2304.425049,2643.298340 2299.112061,2636.654053
	C2292.208496,2628.020020 2282.502441,2623.605469 2271.115479,2623.428955
	C2260.583496,2623.265869 2252.805908,2628.889648 2245.559326,2635.433838
	C2235.036865,2644.936279 2228.025391,2657.106689 2220.462646,2668.901123
	C2211.841553,2682.346680 2202.724365,2695.481201 2193.567383,2708.572021
	C2191.193604,2711.965576 2187.864258,2714.690674 2183.456055,2719.315186
	C2182.932617,2713.890625 2182.509521,2710.721924 2182.338623,2707.539795
	C2180.960938,2681.926270 2180.139160,2656.269287 2178.086914,2630.710693
	C2176.934082,2616.355957 2176.796631,2602.225342 2178.528809,2587.939941
	C2184.349365,2539.937256 2187.786621,2491.809570 2185.099609,2443.406982
	C2184.349365,2429.894531 2191.730225,2420.867676 2205.084717,2418.627930
	C2207.711914,2418.187500 2210.387207,2418.021240 2213.003662,2417.532959
	C2300.999512,2401.119629 2386.320557,2376.081055 2468.552734,2340.342041
	C2570.897217,2295.861572 2645.761475,2222.837891 2696.866943,2124.400879
	C2702.081787,2114.356934 2707.715088,2104.508789 2713.578369,2094.826660
	C2731.743652,2064.831787 2753.109619,2037.129761 2774.981689,2009.797852
	C2803.502197,1974.157837 2832.485107,1938.871948 2860.307861,1902.694214
	C2884.954590,1870.646484 2905.840332,1836.175781 2920.559570,1798.283691
	C2934.741943,1761.773315 2941.940186,1724.042969 2938.922607,1684.820068
	C2937.160156,1661.912354 2934.620117,1639.051147 2931.864014,1616.237305
	C2929.145996,1593.735596 2925.451904,1571.316895 2917.605469,1549.960693
	C2914.196777,1540.682983 2909.881348,1531.361206 2904.120361,1523.404297
	C2892.607178,1507.502930 2875.942627,1507.324219 2862.586670,1521.845215
	C2854.486328,1530.651733 2846.464600,1539.530640 2837.566162,1547.687500
	C2837.279297,1547.466064 2836.992188,1547.244629 2836.977051,1545.572632
	C2838.001221,1543.116699 2839.010254,1540.654175 2840.051514,1538.205566
	C2857.527344,1497.107422 2868.289062,1454.502441 2869.709473,1409.657959
	C2871.319824,1358.807861 2866.488037,1308.672974 2854.967285,1259.097656
	C2847.966309,1228.971924 2841.636475,1198.719604 2838.451416,1167.834473
	C2836.752441,1151.361206 2833.534668,1134.950928 2829.702148,1118.820923
	C2826.612549,1105.816772 2820.458252,1093.849365 2811.142578,1083.901245
	C2800.905273,1072.968506 2788.337158,1069.921387 2774.801025,1075.840454
	C2766.409668,1079.509644 2757.941895,1084.386841 2751.449707,1090.713867
	C2739.584229,1102.277588 2728.049561,1114.520264 2718.394531,1127.932129
	C2704.227051,1147.611694 2691.834229,1168.568481 2677.588623,1188.291626
	C2677.192383,1188.119873 2676.796387,1187.948242 2676.349854,1185.940063
	C2676.394287,1181.276489 2676.372803,1176.611084 2676.493896,1171.949463
	C2677.853027,1119.659058 2679.479004,1067.372070 2676.092773,1015.089722
	C2673.675049,977.754883 2668.688232,940.817749 2657.741455,904.963257
	C2644.248291,860.768250 2623.458984,819.738159 2601.082764,779.549927
	C2592.355469,763.875061 2582.222900,748.917236 2571.907227,734.210022
	C2560.772949,718.335815 2547.689697,704.057007 2531.845215,692.638000
	C2512.021240,678.351013 2490.932861,672.727356 2467.005371,682.295471
	C2454.232666,687.403015 2444.554199,683.819946 2436.600342,672.542725
	C2433.356689,667.943726 2430.425049,662.978271 2428.244629,657.803284
	C2421.443359,641.659119 2411.893311,627.268616 2400.796387,613.890381
	C2368.259766,574.664001 2330.823242,540.746826 2288.786133,511.977356
	C2281.414795,506.932465 2273.453613,502.427948 2265.202148,499.047333
	C2235.269775,486.783966 2205.658447,485.859680 2177.064453,503.399658
	C2157.764404,515.238708 2138.416016,526.999146 2119.105469,538.821411
	C2115.467529,541.048645 2111.906738,543.401611 2108.298584,545.704041
	C2104.968506,543.552429 2102.161621,541.798767 2099.415039,539.955139
	C2063.725342,515.996521 2027.578857,492.777679 1989.353760,473.001526
	C1970.711304,463.356628 1951.819824,454.080536 1931.190308,449.489655
	C1923.524536,447.783722 1915.352661,446.910400 1907.557495,447.520538
	C1889.960327,448.897919 1876.715332,459.179443 1864.799194,471.201385
	C1852.997925,483.107422 1843.640625,496.883942 1835.217285,511.321014
	C1833.419922,514.401672 1831.449707,517.381409 1829.478516,520.536499
	C1825.190186,519.310974 1821.746338,518.126709 1818.212402,517.353271
	C1806.201538,514.724365 1794.201538,512.011963 1782.116455,509.766449
	C1770.305054,507.571777 1759.693359,511.007019 1750.135986,517.973267
	C1746.638916,520.522095 1743.243652,523.216675 1739.878296,525.939087
	C1721.850586,540.521973 1707.305176,558.326233 1693.377319,576.653564
	C1681.929688,591.717346 1667.346069,602.258057 1649.443848,608.214478
	C1643.133667,610.313965 1636.786865,612.350586 1630.356445,614.032532
	C1607.178833,620.095032 1583.916138,625.835327 1560.764526,631.993591
	C1529.521240,640.304199 1503.718994,657.467468 1482.929688,681.932007
	C1473.899658,692.558289 1465.634277,703.949463 1458.032593,715.650146
	C1442.193970,740.029419 1430.634766,766.655762 1418.798340,793.118774
	C1401.635376,831.490540 1386.384277,870.490540 1377.147583,911.663513
	C1370.048950,943.305176 1366.147461,975.296143 1364.097168,1007.780701
	C1363.387451,1007.859741 1362.677734,1007.938782 1361.525635,1006.535583
	C1359.005249,996.871033 1357.129272,986.978394 1353.809204,977.596863
	C1349.161987,964.465271 1344.568848,951.093872 1337.900391,938.952148
	C1328.799561,922.381226 1316.514282,918.535400 1299.058960,925.718933
	C1288.339355,930.130371 1278.151978,935.975281 1268.075439,941.783386
	C1236.680176,959.879944 1217.024048,986.925537 1208.115601,1021.912659
	C1202.660645,1043.336914 1200.776245,1065.215332 1199.840454,1087.225220
	C1199.090210,1104.869019 1198.093994,1122.502319 1197.212280,1140.140503
	C1195.482056,1174.746948 1193.035889,1209.336182 1192.201904,1243.964233
	C1191.049927,1291.799683 1194.950928,1339.186279 1209.499512,1385.188232
	C1209.909912,1386.485962 1209.551270,1388.026733 1209.551270,1391.366455
	C1190.560669,1375.618530 1172.683228,1361.257568 1155.338867,1346.279297
	C1138.236328,1331.510010 1127.290649,1312.640747 1120.939575,1291.026855
	C1118.029297,1281.122559 1115.391602,1271.110596 1111.882324,1261.418091
	C1108.837646,1253.008789 1105.655518,1244.402100 1100.918823,1236.902832
	C1090.159058,1219.867798 1071.915771,1214.257812 1052.958008,1221.026001
	C1042.339111,1224.817139 1033.669189,1231.402222 1026.340332,1239.871582
	C1016.139954,1251.659668 1009.492493,1265.452759 1004.302490,1279.939209
	C979.657471,1348.728882 973.213135,1419.417358 983.143188,1491.639771
	C987.089417,1520.341431 991.991577,1548.910522 996.254395,1577.570190
	C1005.458557,1639.451050 1020.692871,1699.603760 1045.738403,1757.165649
	C1058.216431,1785.843872 1070.852173,1814.484619 1079.411377,1844.751709
	C1096.146851,1903.931519 1125.068115,1956.950562 1163.359619,2004.791260
	C1199.848999,2050.380859 1239.370605,2093.270264 1282.422729,2132.781250
	C1342.267700,2187.704346 1409.617676,2230.536377 1486.552979,2257.448242
	C1532.424194,2273.494141 1578.504028,2288.945801 1624.526733,2304.556885
	C1647.874390,2312.476807 1671.443237,2319.462402 1696.009399,2322.820801
	C1706.185669,2324.211914 1716.204224,2326.985596 1726.178467,2329.577148
	C1745.145386,2334.504639 1758.909912,2345.694824 1765.773193,2364.372070
	C1773.693237,2385.925293 1781.312622,2407.589111 1789.008179,2429.224121
	C1789.179932,2429.707031 1788.701416,2430.421143 1788.208496,2432.127197
	C1780.596191,2433.320557 1772.508423,2434.736816 1764.377075,2435.828369
	C1752.169067,2437.467041 1739.805908,2438.229004 1727.736206,2440.547852
	C1711.993530,2443.572021 1705.721924,2455.407715 1710.980347,2470.381836
	C1712.191406,2473.830811 1713.727173,2477.176270 1715.268799,2480.497070
	C1728.452759,2508.897949 1742.141235,2537.077393 1754.682983,2565.758545
	C1760.921753,2580.025879 1766.277344,2594.913574 1769.940430,2610.027588
	C1779.452515,2649.274414 1783.777710,2689.427734 1787.602783,2729.535889
	C1792.504761,2780.934814 1796.753784,2832.408691 1800.348511,2883.915771
	C1804.824585,2948.046875 1810.619385,3012.133789 1809.781738,3076.535156
	C1809.517456,3096.854736 1810.422729,3117.249268 1808.982422,3137.480713
	C1806.807373,3168.032959 1803.480713,3198.524414 1799.833496,3228.944824
	C1796.146118,3259.701172 1791.475098,3290.351562 1782.986816,3320.238770
	C1774.465088,3350.243652 1770.978882,3380.898926 1769.875244,3411.974854
	C1769.402466,3425.289307 1774.837891,3435.521973 1784.987183,3442.885254
	C1791.577759,3447.666748 1799.325073,3451.500488 1807.129639,3453.832764
	C1825.187378,3459.228271 1843.973145,3458.875977 1862.646851,3458.659180
	C1878.880615,3458.470703 1893.891724,3452.335449 1909.509766,3449.160889
	C1936.340576,3443.707520 1961.331665,3446.387939 1981.084106,3468.169678
	C1987.150391,3474.859619 1994.776123,3477.384277 2003.619019,3476.386963
	C2007.247192,3475.977539 2010.878296,3475.437256 2014.445312,3474.666016
	C2037.871216,3469.599365 2061.256836,3464.345215 2084.701660,3459.368896
	C2102.279053,3455.637451 2120.080811,3452.854004 2137.500244,3448.514404
	C2157.252197,3443.593506 2160.628662,3435.883545 2155.592773,3416.310547
	C2148.848633,3390.097900 2144.328125,3363.372314 2146.506836,3336.225586
	C2151.278076,3276.785645 2156.787354,3217.405029 2162.502930,3157.298340
	C2162.387939,3156.199463 2162.272949,3155.100342 2162.229736,3152.310059
z"/>
<path fill="#none" opacity="1.000000" stroke="none"
	d="
M4.815098,2055.375244
	C5.293848,2062.655029 5.638021,2069.946289 6.273305,2077.212402
	C10.264525,2122.861816 13.172658,2168.642578 18.619007,2214.119141
	C27.197895,2285.751709 40.531387,2356.602051 57.431732,2426.788330
	C72.314995,2488.598145 90.068573,2549.546387 110.902794,2609.578857
	C133.604538,2674.992188 159.727875,2739.027832 189.296219,2801.673340
	C233.007706,2894.283447 283.434326,2983.037109 341.004791,3067.717529
	C386.508972,3134.648926 435.959015,3198.519287 489.271637,3259.450684
	C526.357300,3301.836426 565.222778,3342.505859 605.752075,3381.533691
	C667.907837,3441.386963 733.793457,3496.898438 803.359009,3548.019287
	C863.246948,3592.028809 925.325623,3632.656250 989.762817,3669.675293
	C1039.418457,3698.202393 1090.309814,3724.329590 1142.241211,3748.478516
	C1214.144531,3781.914795 1287.853638,3810.715332 1363.290527,3835.075439
	C1426.031128,3855.335693 1489.532104,3872.987061 1554.211792,3885.810303
	C1602.164795,3895.317383 1650.355103,3903.840088 1698.692017,3911.126709
	C1734.164917,3916.473877 1770.010864,3919.494629 1805.759399,3922.812256
	C1829.260620,3924.993408 1852.884033,3925.858154 1877.255615,3928.130859
	C1878.039062,3929.299561 1878.019531,3929.649658 1878.000000,3930.000000
	C1252.812500,3930.000000 627.625122,3930.000000 2.000000,3930.000000
	C2.000000,3305.958252 2.000000,2681.916260 2.707201,2056.796387
	C3.881299,2055.604004 4.348196,2055.489746 4.815098,2055.375244
z"/>
<path fill="#none" opacity="1.000000" stroke="none"
	d="
M1877.829590,3.638897
	C1820.951050,5.597741 1764.337524,10.928459 1707.950684,18.296360
	C1649.880737,25.884197 1592.266602,36.270771 1535.086304,49.063900
	C1463.558472,65.067047 1393.194946,85.115807 1323.941528,109.057091
	C1258.825806,131.567978 1195.103271,157.515854 1132.735229,186.829926
	C1057.943481,221.983383 985.612671,261.601166 915.876587,305.912476
	C836.268066,356.496887 760.670288,412.505035 688.988647,473.857513
	C640.371155,515.469421 594.021484,559.464844 549.684143,605.525940
	C486.620056,671.041809 428.510742,740.771667 375.212616,814.499573
	C331.683411,874.713928 291.605927,937.121460 255.089066,1001.818298
	C223.982925,1056.928955 195.703445,1113.465332 170.014984,1171.296997
	C141.888626,1234.616821 117.443718,1299.345215 96.260773,1365.299805
	C70.911797,1444.225586 50.808098,1524.476074 35.813087,1606.013550
	C26.734629,1655.379028 19.072105,1704.953003 14.272067,1754.918335
	C11.066430,1788.286987 8.621011,1821.730103 6.020050,1855.154297
	C4.837319,1870.353149 4.101773,1885.586792 2.581689,1901.402344
	C2.000000,1268.813354 2.000000,635.626770 2.000000,2.000000
	C626.708374,2.000000 1251.416870,2.000000 1877.008789,2.408559
	C1877.892334,2.817119 1877.829590,3.638897 1877.829590,3.638897
z"/>
<path fill="none" opacity="1.000000" stroke="none"
	d="
M2055.931885,3927.897461
	C2069.512451,3926.968750 2083.087402,3925.948486 2096.674561,3925.128662
	C2143.160645,3922.322754 2189.429443,3917.431885 2235.578613,3911.215332
	C2341.686523,3896.921631 2445.841797,3873.776367 2548.104248,3842.179688
	C2626.692139,3817.897949 2703.408691,3788.658691 2778.331543,3754.640381
	C2862.714111,3716.327393 2943.966553,3672.290527 3022.093994,3622.507080
	C3100.229492,3572.718506 3174.348145,3517.481689 3244.770752,3457.264404
	C3292.628174,3416.342529 3338.335693,3373.123535 3382.001465,3327.807373
	C3434.442627,3273.384521 3483.538330,3216.039062 3529.371094,3155.898438
	C3580.273193,3089.105957 3626.748291,3019.404297 3668.775879,2946.704102
	C3725.719238,2848.201660 3773.680176,2745.512207 3812.676270,2638.644531
	C3847.620605,2542.881836 3874.854248,2444.963135 3894.342285,2344.889160
	C3904.508789,2292.682861 3913.010986,2240.222656 3918.316162,2187.292725
	C3921.360596,2156.918213 3924.100586,2126.500977 3926.216064,2096.050049
	C3927.759521,2073.832275 3928.059570,2051.528320 3929.457031,2028.631348
	C3930.000000,2661.853027 3930.000000,3295.706299 3930.000000,3930.000000
	C3305.958252,3930.000000 2681.916260,3930.000000 2056.908203,3929.474609
	C2055.938477,3928.598633 2055.935059,3928.248047 2055.931885,3927.897461
z"/>
<path fill="#none" opacity="1.000000" stroke="none"
	d="
M3928.193604,1875.901611
	C3926.010254,1840.742432 3924.091553,1805.563721 3921.493164,1770.435181
	C3920.645020,1758.968140 3917.808105,1747.660767 3916.292969,1736.225830
	C3915.261963,1728.445068 3915.127441,1720.549438 3914.273438,1712.740112
	C3912.901855,1700.200073 3911.536133,1687.648926 3909.696289,1675.172119
	C3901.543945,1619.889282 3891.070068,1565.040161 3878.142822,1510.674683
	C3863.045654,1447.183838 3845.013184,1384.527100 3823.587402,1322.879395
	C3800.418945,1256.216431 3773.826416,1190.944458 3743.651123,1127.121948
	C3700.300049,1035.432129 3650.262451,947.564819 3593.284424,863.684937
	C3545.549561,793.411743 3493.454346,726.519653 3437.085449,662.912781
	C3402.381836,623.752747 3366.168457,586.065796 3328.555664,549.763245
	C3277.058838,500.059784 3222.861816,453.409210 3166.148193,409.704865
	C3125.239746,378.180511 3083.198242,348.256042 3039.963867,320.023682
	C2989.769287,287.245911 2938.211182,256.769287 2885.172607,228.789246
	C2824.202881,196.625061 2761.880859,167.386169 2697.869873,141.806900
	C2627.352783,113.627907 2555.465576,89.531738 2482.141357,69.691338
	C2408.170898,49.676094 2333.301514,34.078060 2257.511963,22.835634
	C2209.791016,15.756878 2161.894043,10.260789 2113.751709,7.053122
	C2095.170654,5.815073 2076.565430,4.936025 2057.039551,3.355294
	C2056.107666,2.817172 2056.000000,2.000000 2056.000000,2.000000
	C2680.520752,2.000000 3305.041748,2.000000 3930.000000,2.000000
	C3930.000000,626.041748 3930.000000,1250.083496 3929.547852,1875.044922
	C3929.095947,1875.964355 3928.193604,1875.901611 3928.193604,1875.901611
z"/>
<path fill="#F6BFDA" opacity="1.000000" stroke="none"
	d="
M2055.010742,3927.890869
	C2055.935059,3928.248047 2055.938477,3928.598633 2055.970703,3929.474609
	C2047.286255,3930.000000 2038.572388,3930.000000 2028.929321,3930.000000
	C2032.419556,3929.329834 2036.819824,3928.423828 2041.264526,3928.058105
	C2045.515503,3927.708252 2049.812744,3927.919678 2055.010742,3927.890869
z"/>
<path fill="#F6BFDA" opacity="1.000000" stroke="none"
	d="
M1878.929321,3930.000000
	C1878.019531,3929.649658 1878.039062,3929.299561 1878.063232,3928.423096
	C1886.968506,3928.220459 1895.869019,3928.543701 1905.384766,3929.433594
	C1897.286255,3930.000000 1888.572388,3930.000000 1878.929321,3930.000000
z"/>
<path fill="#F8CBE1" opacity="1.000000" stroke="none"
	d="
M4.751328,2054.494629
	C4.348196,2055.489746 3.881299,2055.604004 2.707201,2055.859375
	C2.000000,2047.286255 2.000000,2038.572388 2.000005,2028.929321
	C2.796646,2031.687378 3.945711,2035.341064 4.301968,2039.070557
	C4.762038,2043.886597 4.588345,2048.763428 4.751328,2054.494629
z"/>
<path fill="#F6BFDA" opacity="1.000000" stroke="none"
	d="
M3928.092285,1876.829102
	C3928.193604,1875.901611 3929.095947,1875.964355 3929.547852,1875.982178
	C3930.000000,1884.713745 3930.000000,1893.427612 3930.000000,1903.070679
	C3929.329102,1900.239014 3928.325439,1896.500366 3928.069824,1892.711426
	C3927.734619,1887.747314 3927.989746,1882.743408 3928.092285,1876.829102
z"/>
<path fill="#F6BFDA" opacity="1.000000" stroke="none"
	d="
M2055.073730,2.000000
	C2056.000000,2.000000 2056.107666,2.817172 2056.139160,3.228070
	C2047.856445,3.469997 2039.541870,3.301026 2030.613770,2.566028
	C2038.049072,2.000000 2046.098145,2.000000 2055.073730,2.000000
z"/>
<path fill="#F6BFDA" opacity="1.000000" stroke="none"
	d="
M1878.753662,3.761676
	C1877.829590,3.638897 1877.892334,2.817119 1877.946167,2.408559
	C1886.049072,2.000000 1894.098145,2.000000 1903.073608,2.000000
	C1896.160522,6.085787 1887.778076,3.164521 1878.753662,3.761676
z"/>
<path fill="#FFFFFF" opacity="1.000000" stroke="none"
	d="
M2678.685303,1188.981079
	C2691.834229,1168.568481 2704.227051,1147.611694 2718.394531,1127.932129
	C2728.049561,1114.520264 2739.584229,1102.277588 2751.449707,1090.713867
	C2757.941895,1084.386841 2766.409668,1079.509644 2774.801025,1075.840454
	C2788.337158,1069.921387 2800.905273,1072.968506 2811.142578,1083.901245
	C2820.458252,1093.849365 2826.612549,1105.816772 2829.702148,1118.820923
	C2833.534668,1134.950928 2836.752441,1151.361206 2838.451416,1167.834473
	C2841.636475,1198.719604 2847.966309,1228.971924 2854.967285,1259.097656
	C2866.488037,1308.672974 2871.319824,1358.807861 2869.709473,1409.657959
	C2868.289062,1454.502441 2857.527344,1497.107422 2840.051514,1538.205566
	C2839.010254,1540.654175 2838.001221,1543.116699 2836.608887,1546.695557
	C2836.427979,1548.628174 2836.615479,1549.437744 2836.802734,1550.247314
	C2837.337646,1549.624023 2837.872559,1549.000610 2838.407227,1548.377197
	C2846.464600,1539.530640 2854.486328,1530.651733 2862.586670,1521.845215
	C2875.942627,1507.324219 2892.607178,1507.502930 2904.120361,1523.404297
	C2909.881348,1531.361206 2914.196777,1540.682983 2917.605469,1549.960693
	C2925.451904,1571.316895 2929.145996,1593.735596 2931.864014,1616.237305
	C2934.620117,1639.051147 2937.160156,1661.912354 2938.922607,1684.820068
	C2941.940186,1724.042969 2934.741943,1761.773315 2920.559570,1798.283691
	C2905.840332,1836.175781 2884.954590,1870.646484 2860.307861,1902.694214
	C2832.485107,1938.871948 2803.502197,1974.157837 2774.981689,2009.797852
	C2753.109619,2037.129761 2731.743652,2064.831787 2713.578369,2094.826660
	C2707.715088,2104.508789 2702.081787,2114.356934 2696.866943,2124.400879
	C2645.761475,2222.837891 2570.897217,2295.861572 2468.552734,2340.342041
	C2386.320557,2376.081055 2300.999512,2401.119629 2213.003662,2417.532959
	C2210.387207,2418.021240 2207.711914,2418.187500 2205.084717,2418.627930
	C2191.730225,2420.867676 2184.349365,2429.894531 2185.099609,2443.406982
	C2187.786621,2491.809570 2184.349365,2539.937256 2178.528809,2587.939941
	C2176.796631,2602.225342 2176.934082,2616.355957 2178.086914,2630.710693
	C2180.139160,2656.269287 2180.960938,2681.926270 2182.338623,2707.539795
	C2182.509521,2710.721924 2182.932617,2713.890625 2183.456055,2719.315186
	C2187.864258,2714.690674 2191.193604,2711.965576 2193.567383,2708.572021
	C2202.724365,2695.481201 2211.841553,2682.346680 2220.462646,2668.901123
	C2228.025391,2657.106689 2235.036865,2644.936279 2245.559326,2635.433838
	C2252.805908,2628.889648 2260.583496,2623.265869 2271.115479,2623.428955
	C2282.502441,2623.605469 2292.208496,2628.020020 2299.112061,2636.654053
	C2304.425049,2643.298340 2309.444092,2650.897461 2311.999512,2658.900391
	C2322.495605,2691.769775 2328.532227,2725.432617 2326.479492,2760.184082
	C2323.754639,2806.316895 2304.730225,2844.783691 2271.800537,2876.715332
	C2251.550537,2896.352539 2228.102783,2911.583252 2203.837891,2925.650391
	C2194.909424,2930.826660 2185.861328,2935.795654 2176.389893,2941.128174
	C2175.002197,3003.587646 2169.249023,3065.900391 2163.946289,3129.483398
	C2163.772217,3131.802490 2163.883545,3132.901123 2163.995117,3134.000000
	C2163.406738,3140.103271 2162.818359,3146.206787 2161.945312,3153.506836
	C2161.772461,3155.802490 2161.883789,3156.901123 2161.995117,3158.000000
	C2156.787354,3217.405029 2151.278076,3276.785645 2146.506836,3336.225586
	C2144.328125,3363.372314 2148.848633,3390.097900 2155.592773,3416.310547
	C2160.628662,3435.883545 2157.252197,3443.593506 2137.500244,3448.514404
	C2120.080811,3452.854004 2102.279053,3455.637451 2084.701660,3459.368896
	C2061.256836,3464.345215 2037.871216,3469.599365 2014.445312,3474.666016
	C2010.878296,3475.437256 2007.247192,3475.977539 2003.619019,3476.386963
	C1994.776123,3477.384277 1987.150391,3474.859619 1981.084106,3468.169678
	C1961.331665,3446.387939 1936.340576,3443.707520 1909.509766,3449.160889
	C1893.891724,3452.335449 1878.880615,3458.470703 1862.646851,3458.659180
	C1843.973145,3458.875977 1825.187378,3459.228271 1807.129639,3453.832764
	C1799.325073,3451.500488 1791.577759,3447.666748 1784.987183,3442.885254
	C1774.837891,3435.521973 1769.402466,3425.289307 1769.875244,3411.974854
	C1770.978882,3380.898926 1774.465088,3350.243652 1782.986816,3320.238770
	C1791.475098,3290.351562 1796.146118,3259.701172 1799.833496,3228.944824
	C1803.480713,3198.524414 1806.807373,3168.032959 1808.982422,3137.480713
	C1810.422729,3117.249268 1809.517456,3096.854736 1809.781738,3076.535156
	C1810.619385,3012.133789 1804.824585,2948.046875 1800.348511,2883.915771
	C1796.753784,2832.408691 1792.504761,2780.934814 1787.602783,2729.535889
	C1783.777710,2689.427734 1779.452515,2649.274414 1769.940430,2610.027588
	C1766.277344,2594.913574 1760.921753,2580.025879 1754.682983,2565.758545
	C1742.141235,2537.077393 1728.452759,2508.897949 1715.268799,2480.497070
	C1713.727173,2477.176270 1712.191406,2473.830811 1710.980347,2470.381836
	C1705.721924,2455.407715 1711.993530,2443.572021 1727.736206,2440.547852
	C1739.805908,2438.229004 1752.169067,2437.467041 1764.377075,2435.828369
	C1772.508423,2434.736816 1780.596191,2433.320557 1788.208496,2432.127197
	C1788.701416,2430.421143 1789.179932,2429.707031 1789.008179,2429.224121
	C1781.312622,2407.589111 1773.693237,2385.925293 1765.773193,2364.372070
	C1758.909912,2345.694824 1745.145386,2334.504639 1726.178467,2329.577148
	C1716.204224,2326.985596 1706.185669,2324.211914 1696.009399,2322.820801
	C1671.443237,2319.462402 1647.874390,2312.476807 1624.526733,2304.556885
	C1578.504028,2288.945801 1532.424194,2273.494141 1486.552979,2257.448242
	C1409.617676,2230.536377 1342.267700,2187.704346 1282.422729,2132.781250
	C1239.370605,2093.270264 1199.848999,2050.380859 1163.359619,2004.791260
	C1125.068115,1956.950562 1096.146851,1903.931519 1079.411377,1844.751709
	C1070.852173,1814.484619 1058.216431,1785.843872 1045.738403,1757.165649
	C1020.692871,1699.603760 1005.458557,1639.451050 996.254395,1577.570190
	C991.991577,1548.910522 987.089417,1520.341431 983.143188,1491.639771
	C973.213135,1419.417358 979.657471,1348.728882 1004.302490,1279.939209
	C1009.492493,1265.452759 1016.139954,1251.659668 1026.340332,1239.871582
	C1033.669189,1231.402222 1042.339111,1224.817139 1052.958008,1221.026001
	C1071.915771,1214.257812 1090.159058,1219.867798 1100.918823,1236.902832
	C1105.655518,1244.402100 1108.837646,1253.008789 1111.882324,1261.418091
	C1115.391602,1271.110596 1118.029297,1281.122559 1120.939575,1291.026855
	C1127.290649,1312.640747 1138.236328,1331.510010 1155.338867,1346.279297
	C1172.683228,1361.257568 1190.560669,1375.618530 1209.551270,1391.366455
	C1209.551270,1388.026733 1209.909912,1386.485962 1209.499512,1385.188232
	C1194.950928,1339.186279 1191.049927,1291.799683 1192.201904,1243.964233
	C1193.035889,1209.336182 1195.482056,1174.746948 1197.212280,1140.140503
	C1198.093994,1122.502319 1199.090210,1104.869019 1199.840454,1087.225220
	C1200.776245,1065.215332 1202.660645,1043.336914 1208.115601,1021.912659
	C1217.024048,986.925537 1236.680176,959.879944 1268.075439,941.783386
	C1278.151978,935.975281 1288.339355,930.130371 1299.058960,925.718933
	C1316.514282,918.535400 1328.799561,922.381226 1337.900391,938.952148
	C1344.568848,951.093872 1349.161987,964.465271 1353.809204,977.596863
	C1357.129272,986.978394 1359.005249,996.871033 1361.666992,1007.957703
	C1362.567261,1011.867249 1363.326050,1014.354675 1364.084839,1016.842102
	C1364.715942,1016.656738 1365.347046,1016.471313 1365.978149,1016.285950
	C1365.708130,1013.416138 1365.438232,1010.546326 1365.168335,1007.676514
	C1366.147461,975.296143 1370.048950,943.305176 1377.147583,911.663513
	C1386.384277,870.490540 1401.635376,831.490540 1418.798340,793.118774
	C1430.634766,766.655762 1442.193970,740.029419 1458.032593,715.650146
	C1465.634277,703.949463 1473.899658,692.558289 1482.929688,681.932007
	C1503.718994,657.467468 1529.521240,640.304199 1560.764526,631.993591
	C1583.916138,625.835327 1607.178833,620.095032 1630.356445,614.032532
	C1636.786865,612.350586 1643.133667,610.313965 1649.443848,608.214478
	C1667.346069,602.258057 1681.929688,591.717346 1693.377319,576.653564
	C1707.305176,558.326233 1721.850586,540.521973 1739.878296,525.939087
	C1743.243652,523.216675 1746.638916,520.522095 1750.135986,517.973267
	C1759.693359,511.007019 1770.305054,507.571777 1782.116455,509.766449
	C1794.201538,512.011963 1806.201538,514.724365 1818.212402,517.353271
	C1821.746338,518.126709 1825.190186,519.310974 1829.478516,520.536499
	C1831.449707,517.381409 1833.419922,514.401672 1835.217285,511.321014
	C1843.640625,496.883942 1852.997925,483.107422 1864.799194,471.201385
	C1876.715332,459.179443 1889.960327,448.897919 1907.557495,447.520538
	C1915.352661,446.910400 1923.524536,447.783722 1931.190308,449.489655
	C1951.819824,454.080536 1970.711304,463.356628 1989.353760,473.001526
	C2027.578857,492.777679 2063.725342,515.996521 2099.415039,539.955139
	C2102.161621,541.798767 2104.968506,543.552429 2108.298584,545.704041
	C2111.906738,543.401611 2115.467529,541.048645 2119.105469,538.821411
	C2138.416016,526.999146 2157.764404,515.238708 2177.064453,503.399658
	C2205.658447,485.859680 2235.269775,486.783966 2265.202148,499.047333
	C2273.453613,502.427948 2281.414795,506.932465 2288.786133,511.977356
	C2330.823242,540.746826 2368.259766,574.664001 2400.796387,613.890381
	C2411.893311,627.268616 2421.443359,641.659119 2428.244629,657.803284
	C2430.425049,662.978271 2433.356689,667.943726 2436.600342,672.542725
	C2444.554199,683.819946 2454.232666,687.403015 2467.005371,682.295471
	C2490.932861,672.727356 2512.021240,678.351013 2531.845215,692.638000
	C2547.689697,704.057007 2560.772949,718.335815 2571.907227,734.210022
	C2582.222900,748.917236 2592.355469,763.875061 2601.082764,779.549927
	C2623.458984,819.738159 2644.248291,860.768250 2657.741455,904.963257
	C2668.688232,940.817749 2673.675049,977.754883 2676.092773,1015.089722
	C2679.479004,1067.372070 2677.853027,1119.659058 2676.493896,1171.949463
	C2676.372803,1176.611084 2676.394287,1181.276489 2676.221680,1187.320801
	C2676.290039,1189.290283 2676.486328,1189.879272 2676.682617,1190.468262
	C2677.350342,1189.972656 2678.017822,1189.476929 2678.685303,1188.981079
z"/>
<path fill="#EE82B9" opacity="1.000000" stroke="none"
	d="
M1364.632812,1007.728638
	C1365.438232,1010.546326 1365.708130,1013.416138 1365.978149,1016.285950
	C1365.347046,1016.471313 1364.715942,1016.656738 1364.084839,1016.842102
	C1363.326050,1014.354675 1362.567261,1011.867249 1361.888184,1008.698853
	C1362.677734,1007.938782 1363.387451,1007.859741 1364.632812,1007.728638
z"/>
<path fill="#F194C3" opacity="1.000000" stroke="none"
	d="
M2164.249023,3133.649170
	C2163.883545,3132.901123 2163.772217,3131.802490 2163.909180,3130.352539
	C2164.272705,3131.100342 2164.387939,3132.199463 2164.249023,3133.649170
z"/>
<path fill="#F194C3" opacity="1.000000" stroke="none"
	d="
M2162.249023,3157.649170
	C2161.883789,3156.901123 2161.772461,3155.802490 2161.909424,3154.352539
	C2162.272949,3155.100342 2162.387939,3156.199463 2162.249023,3157.649170
z"/>
<path fill="#F194C3" opacity="1.000000" stroke="none"
	d="
M2678.136963,1188.636475
	C2678.017822,1189.476929 2677.350342,1189.972656 2676.682617,1190.468262
	C2676.486328,1189.879272 2676.290039,1189.290283 2676.247070,1188.239014
	C2676.796387,1187.948242 2677.192383,1188.119873 2678.136963,1188.636475
z"/>
<path fill="#E74398" opacity="1.000000" stroke="none"
	d="
M2837.986816,1548.032471
	C2837.872559,1549.000610 2837.337646,1549.624023 2836.802734,1550.247314
	C2836.615479,1549.437744 2836.427979,1548.628174 2836.472656,1547.420898
	C2836.992188,1547.244629 2837.279297,1547.466064 2837.986816,1548.032471
z"/>
</svg>