<?xml version="1.0" encoding="utf-8"?>
<svg xmlns="http://www.w3.org/2000/svg" viewBox="0 0 500 500">
  <path fill="#E64598" opacity="1.000000" stroke="none" d="M 276.041 267.379 C 268.374 245.493 260.856 223.993 253.342 202.491 C 251.782 198.026 250.185 193.645 244.798 192.32 C 244.283 192.194 244.077 190.807 243.57 189.642 C 259.811 189.642 275.533 189.642 291.256 189.642 C 291.444 190.148 291.633 190.653 291.821 191.158 C 290.402 191.683 289.007 192.566 287.559 192.665 C 283.759 192.924 282.39 194.964 283.36 198.33 C 287.353 212.185 291.512 225.992 296.486 239.798 C 299.586 227.752 302.806 215.735 305.752 203.651 C 308.9 190.736 308.788 190.798 322.143 190.548 C 325.283 190.489 326.816 191.26 327.792 194.505 C 332.536 210.263 337.584 225.929 342.542 241.622 C 342.877 242.68 343.36 243.691 344.918 244.842 C 347.516 234.06 350.615 223.367 352.568 212.469 C 354.484 201.783 351.693 197.455 342.198 192.645 C 341.513 192.298 341.182 191.252 340.687 190.531 C 341.325 190.15 341.977 189.416 342.6 189.44 C 351.765 189.798 360.926 190.257 370.318 191.233 C 359.407 198.393 358.755 210.431 355.243 220.879 C 350.158 236.007 345.735 251.356 340.79 266.533 C 340.355 267.867 338.192 269.439 336.753 269.52 C 325.135 270.178 325.012 270.119 321.165 259.395 C 316.787 247.188 312.649 234.895 308.398 222.643 C 307.863 221.101 307.274 219.578 305.739 217.976 C 301.224 234.999 296.709 252.022 292.04 269.628 C 287.4 269.628 282.783 269.704 278.173 269.545 C 277.493 269.521 276.851 268.386 276.041 267.379 Z"/>
  <path fill="#E64598" opacity="1.000000" stroke="none" d="M 237.422 209.692 C 237.511 224.181 237.6 238.671 237.687 253.161 C 237.698 254.993 237.634 256.829 237.715 258.658 C 237.992 264.959 239.212 265.716 246.054 263.834 C 245.361 264.952 244.936 266.584 243.932 267.109 C 235.245 271.653 225.991 272.514 216.921 269.062 C 213.846 267.891 211.804 264.005 209.164 261.227 C 203.889 267.832 196.144 271.237 186.696 270.899 C 178.121 270.593 171.721 266.51 169.438 259.717 C 166.746 251.708 168.97 242.313 175.682 237.661 C 180.253 234.494 185.551 232.165 190.808 230.235 C 213.753 221.809 209.686 221.597 209.563 201.853 C 209.496 191.106 201.176 187.045 191.064 192.405 C 192.209 193.262 193.201 194.049 194.238 194.773 C 200.509 199.155 202.393 207.667 198.409 213.688 C 194.403 219.741 184.315 221.757 178.31 217.705 C 172.585 213.842 170.955 204.695 175.052 198.453 C 179.552 191.6 186.768 188.989 194.241 188.139 C 202.098 187.246 210.169 187.213 218.057 187.871 C 229.884 188.858 235.809 195.176 237.239 207.533 C 237.187 208.637 237.305 209.164 237.422 209.692 M 206.396 258.108 C 207.52 256.165 209.502 254.271 209.614 252.273 C 210.01 245.157 209.787 238.006 209.76 230.869 C 209.753 229.021 209.605 227.175 209.491 224.654 C 200.69 231.794 195.047 239.331 196.491 250.395 C 197.263 256.308 199.484 258.325 206.396 258.108 Z"/>
  <path fill="#E64598" opacity="1.000000" stroke="none" d="M 125.488 269.597 C 114.578 269.597 104.167 269.597 93.757 269.597 C 93.602 269.231 93.448 268.866 93.293 268.5 C 93.992 267.9 94.611 266.928 95.401 266.761 C 99.926 265.8 101.847 262.805 101.847 258.515 C 101.845 239.22 101.836 219.924 101.598 200.631 C 101.55 196.792 99.792 193.593 95.404 192.631 C 94.559 192.445 93.94 191.224 93.545 190.819 C 105.818 189.866 117.705 188.943 129.859 187.999 C 130.117 190.817 130.349 193.354 130.679 196.958 C 135.19 190.867 140.505 187.961 147.045 187.006 C 154.048 185.983 159.946 188.489 162.664 194.1 C 166.157 201.313 164.753 210.397 159.464 214.793 C 154.834 218.641 145.676 218.98 140.662 215.489 C 136.227 212.401 134.923 204.986 137.969 199.165 C 139.035 197.13 140.546 195.329 141.854 193.421 C 136.452 193.313 130.51 198.84 130.42 205.077 C 130.169 222.551 130.225 240.033 130.421 257.509 C 130.479 262.687 133.642 265.446 139.379 266.588 C 140.781 266.868 142.161 267.26 143.551 267.6 C 143.498 268.265 143.444 268.931 143.391 269.596 C 137.59 269.596 131.789 269.596 125.488 269.597 Z"/>
  <path fill="#E64498" opacity="1.000000" stroke="none" d="M 386.769 302.446 C 386.567 306.174 386.409 309.478 386.23 313.217 C 382.951 313.217 379.922 313.217 377.506 313.217 C 377.021 303.968 376.641 295.182 375.993 286.416 C 375.92 285.421 374.486 283.937 373.446 283.694 C 361.702 280.947 357.202 272.422 355.721 261.595 C 355.457 259.67 356.356 257.586 356.857 254.798 C 358.752 256.256 359.809 257.07 361.187 258.13 C 361.293 256.296 361.381 254.85 361.46 253.403 C 361.505 252.571 361.447 251.723 361.589 250.909 C 362.274 246.998 377.003 233.736 380.244 235.208 C 384.57 237.174 389.481 235.335 393.795 239.534 C 397.615 243.253 399.569 246.803 400.277 251.668 C 400.689 251.452 401.101 251.236 401.513 251.019 C 402.491 252.31 403.934 253.465 404.354 254.917 C 405.338 258.322 405.932 261.852 406.479 265.364 C 406.704 266.808 406.937 268.667 406.252 269.769 C 402.278 276.165 399.302 283.578 390.813 285.727 C 389.522 286.054 387.856 287.406 387.598 288.56 C 387.371 289.576 389.258 290.905 389.513 292.23 C 389.874 294.109 389.946 296.202 389.478 298.034 C 389.104 299.494 387.738 300.701 386.769 302.446 Z"/>
  <path fill="#E83599" opacity="1.000000" stroke="none" d="M 237.461 209.37 C 237.305 209.164 237.187 208.637 237.216 207.937 C 237.408 208.193 237.454 208.621 237.461 209.37 Z"/>
</svg>